{"glyphs":{"0":{"ha":735,"x_min":0,"x_max":649,"o":"m 324 732 q 450 703 390 732 q 553 624 510 674 q 623 506 597 574 q 649 361 649 438 q 623 217 649 285 q 553 99 597 150 q 450 19 510 49 q 324 -10 390 -10 q 198 19 257 -10 q 95 99 139 49 q 26 217 51 150 q 0 361 0 285 q 26 506 0 438 q 95 624 51 574 q 198 703 139 674 q 324 732 257 732 m 324 701 q 233 674 275 701 q 160 601 192 647 q 111 494 129 556 q 93 361 93 432 q 111 228 93 290 q 160 121 129 167 q 233 49 192 75 q 324 22 275 22 q 415 49 372 22 q 488 121 457 75 q 538 228 519 167 q 556 361 556 290 q 538 494 556 432 q 488 601 519 556 q 415 674 457 647 q 324 701 372 701 z "},"1":{"ha":294,"x_min":1,"x_max":199,"o":"m 199 44 q 186 13 199 26 q 154 0 174 0 q 122 13 135 0 q 108 44 108 26 l 108 654 l 26 572 q 16 568 22 568 q 6 572 10 568 q 1 583 1 576 q 6 593 1 589 l 122 710 q 147 723 133 721 q 174 718 161 725 q 199 681 196 708 l 199 44 l 199 44 z "},"2":{"ha":517,"x_min":0,"x_max":433,"o":"m 33 90 q 95 139 63 113 q 160 194 128 165 q 222 254 192 222 q 275 319 251 286 q 338 463 324 389 q 307 611 351 538 q 244 676 283 651 q 158 701 206 701 q 49 678 100 701 q 40 673 46 676 q 32 669 33 669 q 19 672 25 668 q 14 685 14 676 q 18 696 14 693 q 29 701 22 699 q 158 732 90 732 q 277 708 222 732 q 369 644 332 685 q 421 554 408 603 q 425 456 433 506 q 393 358 417 406 q 339 268 369 310 q 275 194 310 229 q 206 129 240 160 q 138 74 171 99 q 81 31 106 49 l 417 31 q 432 15 432 31 q 417 0 432 0 l 67 0 q 35 1 49 0 q 8 19 21 1 q 0 43 0 29 q 10 72 0 63 q 33 90 19 81 z "},"3":{"ha":615,"x_min":0,"x_max":526,"o":"m 72 613 q 58 603 69 603 q 43 618 43 603 q 46 626 43 621 q 47 628 47 628 q 49 631 47 629 q 130 703 75 675 q 256 732 185 732 q 344 719 303 732 q 415 683 385 706 q 464 628 446 660 q 482 563 482 597 q 447 470 482 511 q 353 408 411 429 q 478 331 429 385 q 526 207 526 276 q 505 123 526 163 q 447 54 483 83 q 361 8 411 25 q 256 -10 311 -10 q 99 29 168 -10 q 1 131 31 68 q 0 138 0 132 q 15 153 0 153 q 29 143 24 153 q 115 56 54 90 q 256 22 176 22 q 326 37 293 22 q 383 76 358 51 q 422 135 408 101 q 436 207 436 168 q 422 279 436 246 q 383 338 408 313 q 326 377 358 363 q 256 392 293 392 q 240 408 240 392 q 256 424 240 424 q 308 435 283 424 q 351 465 333 446 q 380 508 369 483 q 390 563 390 533 q 380 617 390 592 q 351 660 369 642 q 308 690 333 679 q 256 701 283 701 q 144 676 193 701 q 72 613 94 651 z "},"4":{"ha":610,"x_min":-7,"x_max":539,"o":"m 438 271 l 522 271 l 524 271 l 525 271 l 526 271 l 528 271 l 528 269 l 529 269 l 531 269 l 531 268 q 538 259 536 265 q 535 247 539 253 l 535 246 l 533 246 l 533 244 l 532 244 l 531 243 l 529 243 l 529 242 l 528 242 l 526 242 l 525 242 l 524 242 l 522 242 l 438 242 l 438 44 q 424 13 438 26 q 392 0 411 0 q 360 13 372 0 q 347 44 347 26 l 347 242 l 14 242 q 6 243 8 242 q 1 264 -7 253 q 3 265 1 265 l 353 701 q 371 718 361 711 q 417 717 393 729 q 426 708 422 713 q 433 696 431 703 q 437 684 436 689 q 438 672 438 679 l 438 271 m 347 646 l 132 379 l 68 300 l 46 271 l 347 271 l 347 646 z "},"5":{"ha":553,"x_min":6,"x_max":458,"o":"m 433 708 q 418 693 433 693 l 158 693 l 113 438 l 140 438 q 237 433 190 438 q 324 413 283 429 q 395 366 364 397 q 444 281 426 335 q 458 203 457 242 q 443 128 458 164 q 360 31 418 65 q 236 -8 303 -3 q 108 10 169 -14 q 13 89 46 35 q 8 97 10 93 q 6 106 6 101 q 21 121 6 121 q 32 115 26 121 q 35 111 33 114 q 38 106 36 108 q 112 39 64 61 q 210 21 160 17 q 303 58 260 25 q 361 153 346 90 q 357 256 374 207 q 322 322 344 294 q 272 365 300 349 q 212 390 244 382 q 146 403 179 399 q 71 407 108 407 q 36 424 49 407 q 26 460 22 440 l 67 686 q 82 713 69 701 q 111 724 94 724 l 129 724 l 418 724 q 433 708 433 724 z "},"6":{"ha":636,"x_min":3,"x_max":546,"o":"m 13 308 q 60 442 26 378 q 131 559 93 506 q 203 652 168 613 q 256 713 238 692 q 283 724 267 724 q 312 712 300 724 q 324 683 324 700 q 310 653 324 667 q 227 555 271 613 q 149 431 183 497 q 208 452 176 444 q 275 460 240 460 q 380 442 331 460 q 466 392 429 424 q 524 317 503 360 q 546 225 546 274 q 524 134 546 176 q 466 60 503 92 q 380 9 429 28 q 275 -10 331 -10 q 115 35 185 -10 q 18 150 46 81 q 3 228 3 189 q 13 308 4 268 m 126 381 q 101 302 111 343 q 93 221 92 261 q 108 143 94 181 q 154 74 122 106 q 208 36 178 50 q 275 22 239 22 q 345 38 313 22 q 403 82 378 54 q 442 147 428 110 q 456 226 456 183 q 442 306 456 268 q 403 370 428 343 q 345 413 378 397 q 275 429 313 429 q 194 417 232 429 q 126 381 157 404 z "},"7":{"ha":574,"x_min":0,"x_max":482,"o":"m 217 35 q 197 6 213 15 q 163 1 182 -3 q 135 22 144 6 q 129 56 125 38 q 178 224 151 142 q 239 388 206 307 q 309 544 271 468 q 390 693 347 619 l 15 693 q 0 708 0 693 q 15 724 0 724 l 439 724 l 439 722 q 457 717 446 722 q 477 689 472 707 q 472 654 482 671 q 322 354 386 510 q 264 197 290 276 q 217 35 238 118 z "},"8":{"ha":633,"x_min":0,"x_max":542,"o":"m 174 408 q 80 470 115 429 q 44 563 44 511 q 63 628 44 597 q 111 683 81 660 q 183 719 142 706 q 271 732 224 732 q 359 719 318 732 q 431 683 400 706 q 479 628 461 660 q 497 563 497 597 q 462 470 497 511 q 368 408 426 429 q 493 331 444 385 q 542 207 542 276 q 520 123 542 163 q 463 54 499 83 q 376 8 426 25 q 271 -10 326 -10 q 165 8 214 -10 q 79 54 115 25 q 22 123 43 83 q 0 207 0 163 q 49 331 0 276 q 174 408 97 385 m 271 701 q 218 690 243 701 q 175 660 193 679 q 147 617 157 642 q 136 563 136 592 q 147 508 136 533 q 175 465 157 483 q 218 435 193 446 q 271 424 243 424 q 324 435 299 424 q 367 465 349 446 q 397 508 386 483 q 407 563 407 533 q 397 617 407 592 q 367 660 386 642 q 324 690 349 679 q 271 701 299 701 m 271 392 q 201 377 233 392 q 143 338 168 363 q 104 279 118 313 q 90 207 90 246 q 104 135 90 168 q 143 76 118 101 q 201 37 168 51 q 271 22 233 22 q 341 37 308 22 q 399 76 374 51 q 438 135 424 101 q 451 207 451 168 q 438 279 451 246 q 399 338 424 313 q 341 377 374 363 q 271 392 308 392 z "},"9":{"ha":631,"x_min":-3,"x_max":540,"o":"m 531 415 q 483 282 515 346 q 413 165 450 218 q 340 72 375 111 q 288 11 306 32 q 260 0 276 0 q 231 12 243 0 q 219 40 219 24 q 233 71 219 57 q 316 169 272 111 q 394 293 360 226 q 335 272 367 279 q 268 264 303 264 q 163 282 213 264 q 77 332 114 300 q 19 407 40 364 q -3 499 -3 450 q 19 590 -3 547 q 77 664 40 632 q 163 715 114 696 q 268 733 213 733 q 428 688 358 733 q 525 574 497 643 q 540 495 540 535 q 531 415 539 456 m 417 343 q 441 422 432 381 q 449 503 450 463 q 435 581 449 543 q 389 650 421 618 q 335 688 365 674 q 268 701 304 701 q 198 685 231 701 q 140 642 165 669 q 101 577 115 614 q 88 497 88 540 q 101 418 88 456 q 140 353 115 381 q 198 310 165 326 q 268 294 231 294 q 349 307 311 294 q 417 343 386 319 z "}," ":{"ha":240,"x_min":0,"x_max":0,"o":""},"E":{"ha":510,"x_min":0,"x_max":422,"o":"m 0 678 q 13 710 0 697 q 44 724 26 724 l 46 724 l 407 724 q 422 708 422 724 q 407 693 422 693 l 90 693 l 90 678 l 90 376 l 338 376 q 351 361 351 376 q 338 346 351 346 l 90 346 l 90 44 l 90 31 l 407 31 q 422 15 422 31 q 407 0 422 0 l 44 0 q 13 13 26 0 q 0 44 0 26 l 0 346 l 0 376 l 0 678 l 0 678 z "},"F":{"ha":517,"x_min":0,"x_max":422,"o":"m 0 678 q 13 710 0 697 q 44 724 26 724 l 46 724 l 407 724 q 422 708 422 724 q 407 693 422 693 l 90 693 l 90 678 l 90 376 l 338 376 q 351 361 351 376 q 338 346 351 346 l 90 346 l 90 44 q 77 13 90 26 q 44 0 64 0 q 13 13 26 0 q 0 44 0 26 l 0 346 l 0 376 l 0 678 l 0 678 z "},"G":{"ha":735,"x_min":0,"x_max":638,"o":"m 544 331 q 558 363 544 350 q 592 376 572 376 q 624 363 611 376 q 638 331 638 350 l 638 97 q 519 17 586 46 q 374 -12 451 -12 q 228 17 296 -12 q 109 97 160 46 q 29 216 58 149 q 0 361 0 283 q 29 507 0 439 q 109 626 58 575 q 228 706 160 676 q 374 735 296 735 q 500 713 440 735 q 608 651 560 692 q 614 640 614 647 q 599 625 614 625 q 590 626 593 625 q 376 704 500 701 l 374 704 q 265 677 315 704 q 176 603 214 650 q 115 494 138 557 q 93 361 93 432 q 115 228 93 290 q 176 119 138 165 q 265 47 214 74 q 374 19 315 19 l 375 19 q 464 31 421 19 q 544 64 507 43 l 544 331 l 544 331 z "},"H":{"ha":636,"x_min":0,"x_max":539,"o":"m 449 678 q 462 710 449 697 q 494 724 475 724 q 526 710 514 724 q 539 678 539 697 l 539 44 q 526 13 539 26 q 494 0 514 0 q 462 13 475 0 q 449 44 449 26 l 449 346 l 90 346 l 90 44 q 77 13 90 26 q 44 0 64 0 q 13 13 26 0 q 0 44 0 26 l 0 346 l 0 376 l 0 678 q 13 710 0 697 q 44 724 26 724 q 77 710 64 724 q 90 678 90 697 l 90 376 l 449 376 l 449 678 l 449 678 z "},"I":{"ha":189,"x_min":0,"x_max":90,"o":"m 0 678 q 13 710 0 697 q 44 724 26 724 q 77 710 64 724 q 90 678 90 697 l 90 44 q 77 13 90 26 q 44 0 64 0 q 13 13 26 0 q 0 44 0 26 l 0 678 l 0 678 z "},"J":{"ha":192,"x_min":-133,"x_max":93,"o":"m 93 0 q 76 -83 93 -44 q 31 -149 60 -121 q -36 -194 3 -178 q -118 -211 -75 -211 q -133 -196 -133 -211 q -118 -181 -133 -181 q -71 -167 -93 -181 q -33 -128 -49 -153 q -7 -70 -17 -103 q 3 0 3 -37 l 3 678 q 16 710 3 697 q 49 724 29 724 q 81 710 68 724 q 93 678 93 697 l 93 0 l 93 0 z "},"K":{"ha":603,"x_min":0,"x_max":515,"o":"m 447 718 q 458 724 453 724 q 474 708 474 724 q 469 697 474 701 l 450 679 l 365 593 l 175 404 l 451 128 l 500 79 l 504 75 q 515 44 515 61 q 503 13 515 26 q 471 0 490 0 q 436 15 449 0 l 111 340 l 90 361 l 90 44 q 77 13 90 26 q 44 0 64 0 q 13 13 26 0 q 0 44 0 26 l 0 678 q 13 710 0 697 q 44 724 26 724 q 77 710 64 724 q 90 678 90 697 l 90 361 l 154 425 l 447 718 l 447 718 z "},"L":{"ha":494,"x_min":0,"x_max":407,"o":"m 392 31 q 407 15 407 31 q 392 0 407 0 l 90 0 l 63 0 l 46 0 l 44 0 q 13 13 26 0 q 0 44 0 26 l 0 678 q 13 710 0 697 q 44 724 26 724 q 77 710 64 724 q 90 678 90 697 l 90 117 l 90 44 l 90 31 l 392 31 l 392 31 z "},"M":{"ha":789,"x_min":0,"x_max":692,"o":"m 0 678 q 13 710 0 697 q 44 724 26 724 q 85 700 71 724 l 346 247 l 607 700 q 646 724 621 724 q 678 710 665 724 q 692 678 692 697 l 692 44 q 678 13 692 26 q 646 0 665 0 q 614 13 626 0 q 601 44 601 26 l 601 629 l 408 297 l 350 196 q 333 179 343 185 q 299 174 317 169 q 271 196 281 179 l 31 614 l 31 15 q 15 0 31 0 q 0 15 0 0 l 0 678 l 0 678 z "},"N":{"ha":631,"x_min":0,"x_max":533,"o":"m 31 621 l 31 15 q 15 0 31 0 q 0 15 0 0 l 0 676 q 22 717 0 704 q 55 722 38 726 q 83 703 72 718 l 504 103 l 504 708 q 518 724 504 724 q 533 708 533 724 l 533 707 l 533 46 l 533 43 q 511 6 533 19 q 478 1 496 -3 q 450 21 460 6 l 31 621 z "},"O":{"ha":838,"x_min":0,"x_max":747,"o":"m 374 735 q 518 706 450 735 q 638 626 586 676 q 718 507 689 575 q 747 361 747 439 q 718 216 747 283 q 638 97 689 149 q 518 17 586 46 q 374 -12 450 -12 q 228 17 296 -12 q 109 97 160 46 q 29 216 58 149 q 0 361 0 283 q 29 507 0 439 q 109 626 58 575 q 228 706 160 676 q 374 735 296 735 m 374 704 q 265 677 315 704 q 176 603 214 650 q 115 494 138 557 q 93 361 93 432 q 115 228 93 290 q 176 119 138 165 q 265 47 214 74 q 374 19 315 19 q 483 47 432 19 q 572 119 533 74 q 632 228 610 165 q 654 361 654 290 q 632 494 654 432 q 572 603 610 557 q 483 677 533 650 q 374 704 432 704 z "},"P":{"ha":585,"x_min":0,"x_max":500,"o":"m 260 724 q 353 705 310 724 q 430 653 397 686 q 481 576 463 619 q 500 482 500 532 q 481 388 500 432 q 430 311 463 344 q 353 259 397 278 q 260 240 310 240 l 90 240 l 90 89 l 90 44 q 77 13 90 26 q 44 0 64 0 q 13 13 26 0 q 0 44 0 26 l 0 678 q 13 710 0 697 q 44 724 26 724 l 260 724 m 260 271 q 317 288 290 271 q 365 333 344 304 q 398 399 386 361 q 410 482 410 438 q 398 564 410 525 q 365 631 386 603 q 317 676 344 660 q 260 693 290 693 l 90 693 l 90 678 l 90 271 l 260 271 z "},"Q":{"ha":835,"x_min":0,"x_max":754,"o":"m 374 735 q 518 706 450 735 q 638 626 586 676 q 718 507 689 575 q 747 361 747 439 q 724 232 747 293 q 660 122 701 171 q 564 40 619 74 q 444 -6 508 7 q 458 -12 450 -7 q 538 -44 497 -35 q 615 -49 578 -53 q 681 -27 651 -44 q 728 19 711 -10 q 740 26 732 26 q 754 14 754 26 q 751 6 754 8 q 688 -67 726 -39 q 603 -108 649 -96 q 510 -114 558 -119 q 418 -83 461 -108 q 359 -59 389 -67 q 303 -53 329 -51 q 255 -65 276 -54 q 222 -96 233 -76 q 210 -103 218 -103 q 197 -89 197 -103 q 199 -82 197 -85 q 238 -34 214 -54 q 289 -3 261 -14 q 174 45 226 11 q 83 127 121 79 q 22 235 44 175 q 0 361 0 294 q 29 507 0 439 q 109 626 58 575 q 228 706 160 676 q 374 735 296 735 m 374 704 q 265 677 315 704 q 176 603 214 650 q 115 494 138 557 q 93 361 93 432 q 115 228 93 290 q 176 119 138 165 q 265 47 214 74 q 374 19 315 19 q 483 47 432 19 q 572 119 533 74 q 632 228 610 165 q 654 361 654 290 q 632 494 654 432 q 572 603 610 557 q 483 677 533 650 q 374 704 432 704 z "},"R":{"ha":585,"x_min":0,"x_max":504,"o":"m 0 678 q 13 710 0 697 q 44 724 26 724 l 293 724 q 375 707 336 724 q 442 662 414 690 q 488 594 471 633 q 504 513 504 556 q 491 439 504 474 q 454 376 478 404 q 399 330 431 349 q 331 304 368 311 l 342 288 l 469 65 q 474 44 474 57 q 461 13 474 26 q 429 0 449 0 q 390 21 404 0 q 389 24 390 22 l 229 301 l 90 301 l 90 53 l 90 44 q 77 13 90 26 q 44 0 64 0 q 13 13 26 0 q 0 44 0 26 l 0 301 l 0 332 l 0 678 m 90 332 l 293 332 q 340 346 318 332 q 378 385 363 360 q 404 442 394 410 q 414 513 414 475 q 404 583 414 550 q 378 640 394 615 q 340 679 363 665 q 293 693 318 693 l 90 693 l 90 678 l 90 332 z "},"S":{"ha":631,"x_min":-12,"x_max":550,"o":"m 546 136 q 505 66 535 94 q 436 20 475 38 q 354 -5 397 3 q 275 -12 311 -12 q 156 3 213 -12 q 110 19 139 7 q 55 46 82 31 q 8 78 28 61 q -12 108 -12 94 q -7 123 -12 117 q 8 129 -1 129 q 22 124 14 129 q 140 49 75 76 q 276 22 206 22 q 338 27 307 22 q 394 46 368 32 q 435 86 419 60 q 453 156 451 113 l 453 157 l 453 142 l 453 157 l 453 160 l 453 163 l 453 165 l 453 168 l 453 171 l 453 156 q 439 205 450 185 q 411 240 428 225 q 374 267 394 256 q 332 288 353 278 q 233 327 288 307 q 129 375 178 347 q 47 442 81 403 q 14 536 14 481 q 38 631 14 593 q 99 692 61 669 q 185 725 138 715 q 282 735 233 735 q 347 730 307 735 q 426 715 388 725 q 493 691 465 706 q 521 657 521 676 q 515 642 521 649 q 500 636 508 636 q 488 640 493 636 q 394 683 447 667 q 281 700 342 700 q 223 694 253 700 q 169 673 193 688 q 128 636 144 658 q 113 582 113 614 q 132 507 113 540 q 185 460 149 479 q 269 424 222 442 q 365 388 315 407 q 456 340 415 368 q 524 272 497 313 q 550 174 550 232 q 546 136 550 153 z "},"T":{"ha":606,"x_min":0,"x_max":528,"o":"m 218 693 l 15 693 q 0 708 0 693 q 15 724 0 724 l 218 724 l 308 724 l 511 724 l 513 724 q 528 708 528 724 q 513 693 528 693 l 511 693 l 308 693 l 308 44 q 296 13 308 26 q 264 0 283 0 q 231 13 244 0 q 218 44 218 26 l 218 693 z "},"U":{"ha":669,"x_min":0,"x_max":572,"o":"m 572 275 q 550 165 572 217 q 489 74 528 113 q 398 12 450 35 q 286 -11 346 -11 q 174 12 226 -11 q 83 74 122 35 q 22 165 44 113 q 0 275 0 217 l 0 678 q 13 710 0 697 q 44 724 26 724 q 77 710 64 724 q 90 678 90 697 l 90 275 q 106 176 90 222 q 147 94 121 129 q 210 40 174 60 q 286 19 246 19 q 363 40 326 19 q 425 94 399 60 q 467 176 451 129 q 482 275 482 222 l 482 678 q 495 710 482 697 q 528 724 508 724 q 560 710 547 724 q 572 678 572 697 l 572 275 l 572 275 z "},"V":{"ha":660,"x_min":0,"x_max":564,"o":"m 232 31 l 3 661 l 3 663 l 3 664 q 0 678 0 672 q 13 710 0 697 q 44 724 26 724 q 72 715 60 724 q 88 693 83 706 l 307 89 l 535 713 q 549 724 539 724 q 564 708 564 724 l 564 703 l 319 33 q 303 9 315 18 q 275 0 290 0 q 233 31 243 0 l 232 31 z "},"W":{"ha":1039,"x_min":0,"x_max":944,"o":"m 465 435 l 319 33 q 303 9 315 18 q 275 0 290 0 q 233 31 243 0 l 232 31 l 3 661 l 3 663 l 3 664 q 0 678 0 672 q 13 710 0 697 q 44 724 26 724 q 72 715 60 724 q 88 693 83 706 l 307 89 l 450 478 l 382 661 l 382 663 l 382 664 q 379 678 379 672 q 392 710 379 697 q 425 724 406 724 q 451 715 440 724 q 468 693 463 706 l 688 89 l 915 713 q 929 724 918 724 q 944 708 944 724 q 943 703 944 704 l 699 33 q 683 9 694 18 q 656 0 671 0 q 613 31 622 0 l 465 435 z "},"X":{"ha":643,"x_min":0,"x_max":533,"o":"m 249 308 l 38 8 q 24 0 33 0 q 10 15 10 0 q 13 25 10 22 l 231 335 l 10 650 q 7 654 7 653 q 0 678 0 665 q 13 710 0 697 q 44 724 26 724 q 83 703 69 724 l 285 414 l 497 717 q 510 724 501 724 q 525 708 525 724 q 521 697 525 701 l 304 388 l 526 69 q 533 44 533 58 q 521 13 533 26 q 489 0 508 0 q 450 21 464 0 l 249 308 z "},"Y":{"ha":711,"x_min":0,"x_max":617,"o":"m 590 718 q 601 724 596 724 q 617 708 617 724 q 613 697 617 701 l 351 386 l 351 44 q 338 13 351 26 q 306 0 325 0 q 274 13 286 0 q 261 44 261 26 l 261 350 l 10 650 q 0 678 0 664 q 13 710 0 697 q 44 724 26 724 q 79 708 64 724 q 80 707 79 707 q 81 706 81 707 l 331 408 l 590 718 l 590 718 z "},"Z":{"ha":592,"x_min":0,"x_max":489,"o":"m 19 693 q 4 708 4 693 q 19 724 4 724 l 410 724 q 442 710 429 724 q 456 678 456 697 q 451 657 456 667 l 89 31 l 474 31 q 489 15 489 31 q 474 0 489 0 l 44 0 q 13 13 26 0 q 0 44 0 26 q 6 67 0 60 l 367 693 l 19 693 z "},"A":{"ha":646,"x_min":0,"x_max":564,"o":"m 332 692 l 561 61 q 563 60 561 61 q 564 44 564 56 q 551 13 564 26 q 519 0 539 0 q 492 8 504 0 q 476 31 481 17 l 399 244 l 114 244 l 29 10 q 15 0 26 0 q 0 15 0 0 q 1 19 0 18 l 1 21 l 246 689 q 261 714 249 704 q 289 724 274 724 q 315 715 304 724 q 332 693 326 706 l 332 692 m 257 633 l 125 274 l 388 274 l 257 633 z "},"B":{"ha":565,"x_min":0,"x_max":474,"o":"m 263 724 q 327 710 297 724 q 379 674 357 697 q 415 622 401 651 q 428 557 428 592 q 402 469 428 508 q 336 408 376 429 q 435 333 397 386 q 474 211 474 279 q 457 128 474 167 q 412 62 440 90 q 344 17 383 33 q 263 0 306 0 l 44 0 q 13 13 26 0 q 0 44 0 26 l 0 678 q 13 710 0 697 q 44 724 26 724 l 263 724 m 90 693 l 90 422 l 263 422 q 290 431 275 422 q 317 456 304 439 q 338 498 329 472 q 346 557 346 524 q 338 616 346 590 q 317 659 329 642 q 290 685 304 676 q 263 693 275 693 l 90 693 m 263 31 q 310 44 288 31 q 348 83 332 58 q 374 141 364 108 q 383 211 383 174 q 374 281 383 249 q 348 339 364 314 q 310 378 332 364 q 263 392 288 392 l 90 392 l 90 31 l 263 31 z "},"C":{"ha":735,"x_min":0,"x_max":642,"o":"m 374 735 q 513 708 449 735 q 628 636 578 682 q 632 632 631 633 q 636 628 633 631 l 638 628 q 642 615 642 621 q 626 600 642 600 q 613 607 617 600 q 507 677 567 651 q 376 704 447 703 l 374 704 q 265 677 315 704 q 176 603 214 650 q 115 494 138 557 q 93 361 93 432 q 115 228 93 290 q 176 119 138 165 q 265 47 214 74 q 374 19 315 19 l 375 19 q 508 46 446 19 q 615 119 569 72 q 626 124 619 124 q 642 108 642 124 q 638 97 642 101 q 519 17 586 46 q 374 -12 451 -12 q 228 17 296 -12 q 109 97 160 46 q 29 216 58 149 q 0 361 0 283 q 29 507 0 439 q 109 626 58 575 q 228 706 160 676 q 374 735 296 735 z "},"D":{"ha":640,"x_min":0,"x_max":550,"o":"m 0 678 q 13 710 0 697 q 44 724 26 724 l 188 724 l 188 722 q 328 694 263 722 q 444 617 394 665 q 522 502 493 568 q 550 361 550 436 q 522 220 550 286 q 444 106 493 154 q 328 28 394 57 q 188 0 263 0 l 44 0 q 13 13 26 0 q 0 44 0 26 l 0 678 m 188 31 q 293 56 243 31 q 380 127 343 82 q 438 232 417 172 q 460 361 460 292 q 438 490 460 429 q 380 596 417 551 q 293 667 343 640 q 188 693 243 693 l 90 693 l 90 678 l 90 44 l 90 31 l 188 31 z "},"a":{"ha":513,"x_min":0,"x_max":428,"o":"m 214 425 q 280 415 249 425 q 338 385 311 404 q 350 408 342 399 q 383 422 364 422 q 414 408 401 422 q 428 376 428 396 l 428 44 q 414 14 428 26 q 383 0 401 0 q 350 14 364 0 q 338 36 342 21 q 214 -3 283 -3 q 131 14 169 -3 q 63 60 92 31 q 17 128 33 89 q 0 211 0 167 q 17 294 0 256 q 63 363 33 333 q 131 408 92 392 q 214 425 169 425 m 338 346 q 283 381 314 368 q 217 394 251 393 l 214 394 q 167 380 189 394 q 128 340 144 365 q 101 282 111 315 q 92 211 92 249 q 101 140 92 174 q 128 82 111 107 q 167 42 144 57 q 214 28 189 28 l 219 28 q 284 42 254 29 q 338 75 314 54 l 338 346 z "},"b":{"ha":513,"x_min":0,"x_max":428,"o":"m 214 425 q 297 408 258 425 q 365 363 336 392 q 411 294 394 333 q 428 211 428 256 q 411 128 428 167 q 365 60 394 89 q 297 14 336 31 q 214 -3 258 -3 q 90 36 144 -3 q 76 9 88 19 q 44 -1 64 -1 q 13 11 26 -1 q 0 43 0 24 l 0 211 l 0 678 q 13 710 0 697 q 44 724 26 724 q 77 710 64 724 q 90 678 90 697 l 90 386 q 148 415 117 404 q 214 425 179 425 m 90 75 q 144 42 114 54 q 208 28 174 29 l 214 28 q 261 42 239 28 q 300 82 283 57 q 326 140 317 107 q 336 211 336 174 q 326 282 336 249 q 300 340 317 315 q 261 380 283 365 q 214 394 239 394 l 211 394 q 144 381 175 393 q 90 346 114 368 l 90 75 z "},"c":{"ha":471,"x_min":0,"x_max":369,"o":"m 214 425 q 297 408 258 425 q 364 364 335 392 q 369 351 369 358 q 354 336 369 336 q 343 342 347 336 q 217 394 290 392 l 214 394 q 167 380 189 394 q 128 340 144 365 q 101 282 111 315 q 92 211 92 249 q 101 140 92 174 q 128 82 111 107 q 167 42 144 57 q 214 28 189 28 l 219 28 q 288 43 256 29 q 343 81 319 57 q 354 86 349 86 q 369 71 369 86 q 365 60 369 64 q 297 14 336 31 q 214 -3 258 -3 q 131 14 169 -3 q 63 60 92 31 q 17 128 33 89 q 0 211 0 167 q 17 294 0 256 q 63 363 33 333 q 131 408 92 392 q 214 425 169 425 z "},"d":{"ha":525,"x_min":0,"x_max":428,"o":"m 214 425 q 280 415 249 425 q 338 386 311 404 l 338 678 q 350 710 338 697 q 382 724 363 724 q 415 710 401 724 q 428 678 428 697 l 428 211 l 428 43 q 415 11 428 24 q 382 -1 401 -1 q 352 9 364 -1 q 338 36 340 19 q 214 -3 283 -3 q 131 14 169 -3 q 63 60 92 31 q 17 128 33 89 q 0 211 0 167 q 17 294 0 256 q 63 363 33 333 q 131 408 92 392 q 214 425 169 425 m 338 346 q 283 381 314 368 q 217 394 251 393 l 214 394 q 167 380 189 394 q 128 340 144 365 q 101 282 111 315 q 92 211 92 249 q 101 140 92 174 q 128 82 111 107 q 167 42 144 57 q 214 28 189 28 l 219 28 q 284 42 254 29 q 338 75 314 54 l 338 346 z "},"e":{"ha":514,"x_min":0,"x_max":428,"o":"m 214 -3 q 131 14 169 -3 q 63 60 92 31 q 17 128 33 89 q 0 211 0 167 q 17 294 0 256 q 63 363 33 333 q 131 408 92 392 q 214 425 169 425 q 297 408 258 425 q 365 363 336 392 q 411 294 394 333 q 428 211 428 256 q 427 195 428 203 q 425 181 426 188 l 403 181 l 335 181 l 124 181 q 108 196 108 181 q 124 211 108 211 l 336 211 q 326 282 336 249 q 300 340 317 315 q 261 380 283 365 q 214 394 239 394 q 167 380 189 394 q 128 340 144 365 q 101 282 111 315 q 92 211 92 249 q 101 140 92 174 q 128 82 111 107 q 167 42 144 57 q 214 28 189 28 l 217 28 q 285 42 253 28 q 343 81 318 57 q 354 86 349 86 q 369 71 369 86 q 364 58 369 63 q 297 14 335 31 q 214 -3 258 -3 z "},"f":{"ha":313,"x_min":0,"x_max":226,"o":"m 0 513 q 17 594 0 556 q 62 660 33 632 q 128 706 90 689 q 210 724 167 724 l 211 724 q 226 708 226 724 q 211 693 226 693 q 164 679 186 693 q 126 640 142 665 q 100 583 110 615 q 90 513 90 550 l 90 367 l 182 367 q 197 351 197 367 q 182 338 197 338 l 90 338 l 90 44 q 77 13 90 26 q 44 0 64 0 q 13 13 26 0 q 0 44 0 26 l 0 513 l 0 513 z "},"g":{"ha":535,"x_min":0,"x_max":428,"o":"m 428 -46 q 411 -127 428 -89 q 366 -194 394 -165 q 299 -239 338 -222 q 217 -256 260 -256 q 201 -242 201 -256 q 217 -226 201 -226 q 264 -212 242 -226 q 302 -173 286 -197 q 328 -116 318 -149 q 338 -46 338 -83 l 338 36 q 214 -3 283 -3 q 131 14 169 -3 q 63 60 92 31 q 17 128 33 89 q 0 211 0 167 q 17 294 0 256 q 63 363 33 333 q 131 408 92 392 q 214 425 169 425 q 280 415 249 425 q 338 385 311 404 q 350 408 342 399 q 383 422 364 422 q 414 408 401 422 q 428 376 428 396 l 428 -46 m 338 346 q 283 381 314 368 q 217 394 251 393 l 214 394 q 167 380 189 394 q 128 340 144 365 q 101 282 111 315 q 92 211 92 249 q 101 140 92 174 q 128 82 111 107 q 167 42 144 57 q 214 28 189 28 l 219 28 q 284 42 254 29 q 338 75 314 54 l 338 346 z "},"h":{"ha":447,"x_min":0,"x_max":361,"o":"m 0 678 q 13 710 0 697 q 44 724 26 724 q 77 710 64 724 q 90 678 90 697 l 90 397 q 133 415 110 408 q 181 422 156 422 q 251 408 218 422 q 308 369 283 393 q 347 311 333 344 q 361 240 361 278 l 361 44 q 349 13 361 26 q 317 0 336 0 q 284 13 297 0 q 271 44 271 26 l 271 240 q 244 347 271 303 q 181 392 218 392 q 90 361 129 392 l 90 44 q 77 13 90 26 q 44 0 64 0 q 13 13 26 0 q 0 44 0 26 l 0 240 l 0 678 l 0 678 z "},"i":{"ha":192,"x_min":0,"x_max":106,"o":"m 7 376 q 20 409 7 396 q 53 422 33 422 q 85 409 72 422 q 97 376 97 396 l 97 44 q 85 13 97 26 q 53 0 72 0 q 20 13 33 0 q 7 44 7 26 l 7 376 m 0 578 q 15 615 0 600 q 53 631 31 631 q 90 615 75 631 q 106 578 106 600 q 90 541 106 556 q 53 526 75 526 q 15 541 31 526 q 0 578 0 556 z "},"j":{"ha":196,"x_min":-124,"x_max":110,"o":"m 4 578 q 19 615 4 600 q 57 631 35 631 q 94 615 79 631 q 110 578 110 600 q 94 541 110 556 q 57 526 79 526 q 19 541 35 526 q 4 578 4 556 m -108 -226 q -61 -212 -83 -226 q -23 -173 -39 -197 q 3 -116 -7 -149 q 13 -46 13 -83 l 13 376 q 25 409 13 396 q 57 422 38 422 q 90 409 76 422 q 103 376 103 396 l 103 -46 q 86 -127 103 -89 q 41 -194 69 -165 q -26 -239 13 -222 q -108 -256 -65 -256 q -124 -242 -124 -256 q -108 -226 -124 -226 z "},"k":{"ha":444,"x_min":0,"x_max":344,"o":"m 331 76 q 344 45 344 64 q 331 13 344 26 q 299 0 317 0 q 267 13 281 0 q 264 15 264 15 l 122 158 q 108 190 108 171 q 122 222 108 208 l 311 411 q 333 411 324 421 q 333 390 343 400 l 310 367 l 175 232 l 186 222 l 331 76 m 0 678 q 13 710 0 697 q 44 724 26 724 q 77 710 64 724 q 90 678 90 697 l 90 44 q 76 13 90 26 q 45 0 64 0 q 13 13 26 0 q 0 44 0 26 l 0 678 z "},"l":{"ha":189,"x_min":0,"x_max":90,"o":"m 0 678 q 13 710 0 697 q 44 724 26 724 q 77 710 64 724 q 90 678 90 697 l 90 44 q 76 13 90 26 q 45 0 64 0 q 13 13 26 0 q 0 44 0 26 l 0 678 l 0 678 z "},"m":{"ha":724,"x_min":-1,"x_max":631,"o":"m -1 376 q 11 408 -1 396 q 43 422 25 422 q 75 408 61 422 q 85 396 79 404 q 179 422 129 422 q 255 406 219 422 q 314 361 290 389 q 374 406 339 389 q 450 422 410 422 q 520 408 488 422 q 578 369 553 393 q 617 311 603 344 q 631 240 631 278 l 631 44 q 618 13 631 26 q 585 0 604 0 q 554 13 567 0 q 540 44 540 26 l 540 240 q 514 347 540 303 q 450 392 488 392 q 360 361 399 392 l 360 44 q 346 13 360 26 q 315 0 333 0 q 282 13 296 0 q 269 44 269 26 l 269 240 q 243 347 269 303 q 179 392 217 392 q 89 361 128 392 l 89 44 q 76 14 88 26 q 46 0 64 1 l 44 0 l 43 0 l 42 0 l 40 0 q 10 14 22 1 q -1 44 -1 26 l -1 376 z "},"n":{"ha":456,"x_min":-3,"x_max":358,"o":"m 178 422 q 248 408 215 422 q 306 369 281 393 q 344 312 331 344 q 358 242 358 279 l 358 46 q 347 14 358 26 q 315 0 335 1 q 282 13 296 -1 q 268 46 268 26 l 268 242 q 261 299 268 272 q 242 347 254 326 q 213 380 229 368 q 178 392 196 392 q 88 361 126 392 l 88 51 l 88 44 q 49 0 85 7 l 47 0 l 46 0 l 44 0 l 43 0 l 42 0 l 40 0 l 39 0 q 10 13 22 1 q -3 42 -1 25 l -3 43 l -3 44 l -3 46 l -3 376 q 8 406 -3 394 q 33 419 18 417 q 62 417 47 422 q 83 396 76 411 q 178 422 128 422 z "},"o":{"ha":501,"x_min":0,"x_max":428,"o":"m 214 425 q 297 408 258 425 q 365 363 336 392 q 411 294 394 333 q 428 211 428 256 q 411 128 428 167 q 365 60 394 89 q 297 14 336 31 q 214 -3 258 -3 q 131 14 169 -3 q 63 60 92 31 q 17 128 33 89 q 0 211 0 167 q 17 294 0 256 q 63 363 33 333 q 131 408 92 392 q 214 425 169 425 m 214 394 q 167 380 189 394 q 128 340 144 365 q 101 282 111 315 q 92 211 92 249 q 101 140 92 174 q 128 82 111 107 q 167 42 144 57 q 214 28 189 28 q 261 42 239 28 q 300 82 283 57 q 326 140 317 107 q 336 211 336 174 q 326 282 336 249 q 300 340 317 315 q 261 380 283 365 q 214 394 239 394 z "},"u":{"ha":453,"x_min":-3,"x_max":358,"o":"m 178 -3 q 108 12 140 -3 q 50 51 75 26 q 11 108 25 75 q -3 178 -3 140 l -3 374 q 9 406 -3 393 q 40 419 21 418 q 74 407 60 421 q 88 374 88 393 l 88 178 q 94 120 88 147 q 114 72 101 93 q 142 40 126 51 q 178 28 158 28 q 268 58 229 28 l 268 368 l 268 375 q 307 419 271 413 l 308 419 l 310 419 l 311 419 l 313 419 l 314 419 l 315 419 l 317 419 q 345 406 333 418 q 358 378 357 394 l 358 376 l 358 375 l 358 374 l 358 43 q 348 14 358 25 q 323 0 338 3 q 294 3 308 -3 q 272 24 279 8 q 178 -3 228 -3 z "},"p":{"ha":514,"x_min":0,"x_max":428,"o":"m 214 -3 q 90 36 144 -3 l 90 -256 q 77 -288 90 -275 q 44 -301 64 -301 q 13 -288 26 -301 q 0 -256 0 -275 l 0 211 l 0 379 q 13 411 0 399 q 44 424 26 424 q 75 413 63 424 q 90 385 88 401 q 148 415 117 404 q 214 425 179 425 q 297 408 258 425 q 365 363 336 392 q 411 294 394 333 q 428 211 428 256 q 411 128 428 167 q 365 60 394 89 q 297 14 336 31 q 214 -3 258 -3 m 90 75 q 144 40 114 53 q 211 28 175 28 l 214 28 q 261 42 239 28 q 300 82 283 57 q 326 140 317 107 q 336 211 336 174 q 326 282 336 249 q 300 340 317 315 q 261 380 283 365 q 214 394 239 394 l 208 394 q 144 381 174 393 q 90 346 114 368 l 90 75 z "},"q":{"ha":522,"x_min":0,"x_max":428,"o":"m 214 -3 q 131 14 169 -3 q 63 60 92 31 q 17 128 33 89 q 0 211 0 167 q 17 294 0 256 q 63 363 33 333 q 131 408 92 392 q 214 425 169 425 q 280 415 249 425 q 338 385 311 404 q 353 413 340 401 q 382 424 365 424 q 415 411 401 424 q 428 379 428 399 l 428 211 l 428 -256 q 415 -288 428 -275 q 382 -301 401 -301 q 350 -288 363 -301 q 338 -256 338 -275 l 338 36 q 214 -3 283 -3 m 338 346 q 284 381 314 368 q 219 394 254 393 l 214 394 q 167 380 189 394 q 128 340 144 365 q 101 282 111 315 q 92 211 92 249 q 101 140 92 174 q 128 82 111 107 q 167 42 144 57 q 214 28 189 28 l 217 28 q 283 40 251 28 q 338 75 314 53 l 338 346 z "},"r":{"ha":349,"x_min":3,"x_max":264,"o":"m 3 376 q 4 392 3 385 q 15 408 6 399 q 47 421 26 419 q 79 408 67 422 q 93 383 92 396 q 149 412 118 401 q 214 422 179 422 q 227 422 221 422 q 240 419 233 421 q 256 415 251 419 q 256 393 264 404 q 249 390 253 390 q 242 390 246 389 q 236 390 239 390 q 226 392 231 392 q 217 392 221 392 q 160 374 183 392 q 122 328 138 356 q 100 269 107 300 q 93 211 93 238 l 93 49 q 92 38 93 42 q 77 12 89 22 q 49 0 65 1 q 15 15 26 0 q 3 50 3 29 l 3 376 z "},"s":{"ha":396,"x_min":-18,"x_max":315,"o":"m 261 372 q 219 390 242 383 q 172 399 196 397 q 101 378 125 401 q 85 359 90 368 q 79 331 79 350 q 93 290 79 306 q 130 263 107 274 q 181 243 153 251 q 236 224 210 235 q 295 168 275 206 q 310 94 315 131 q 258 25 303 50 q 163 -2 217 1 q 65 11 110 -6 q 25 33 44 19 q -12 61 6 46 q -18 72 -18 67 q -4 86 -18 86 q 6 82 1 86 q 38 58 21 69 q 72 39 54 46 q 106 28 88 32 q 144 23 125 24 q 181 26 163 22 q 213 43 199 31 q 228 63 224 53 q 235 92 233 72 q 220 132 235 117 q 183 158 206 147 q 132 178 160 169 q 78 199 104 188 q 21 240 43 214 q -1 304 -1 267 q 15 363 -1 339 q 56 400 31 386 q 112 419 81 414 q 174 424 143 425 q 275 397 226 424 q 283 385 283 394 q 269 369 283 372 q 261 372 267 369 z "},"t":{"ha":303,"x_min":0,"x_max":225,"o":"m 0 626 q 13 659 0 646 q 44 672 25 672 q 77 659 64 672 q 90 626 90 646 l 90 411 l 182 411 q 197 397 197 411 q 182 382 197 382 l 90 382 l 90 210 q 100 140 90 172 q 126 83 110 107 q 163 44 142 58 q 210 31 185 31 q 225 15 225 31 q 210 0 225 0 q 128 17 167 0 q 62 62 90 33 q 17 128 33 90 q 0 210 0 167 l 0 626 z "},"v":{"ha":438,"x_min":0,"x_max":343,"o":"m 88 390 l 197 90 l 314 411 q 315 413 314 411 q 329 422 318 422 q 343 407 343 422 l 343 401 l 219 64 q 203 22 213 43 q 167 0 194 0 q 128 21 138 0 q 111 63 118 42 l 3 360 q 0 376 0 368 q 13 409 0 396 q 44 422 26 422 q 71 414 60 422 q 88 393 82 406 l 88 390 z "},"w":{"ha":650,"x_min":0,"x_max":557,"o":"m 88 390 l 197 90 l 256 251 l 217 360 q 213 376 213 365 q 226 409 213 396 q 258 422 239 422 q 284 414 274 422 q 300 393 294 406 q 301 390 300 393 l 411 90 l 528 411 l 528 413 q 542 422 532 422 q 557 407 557 422 q 556 401 557 403 l 431 57 q 415 19 424 38 q 379 0 407 0 q 342 19 351 0 q 326 57 333 38 l 272 207 l 219 64 q 203 22 213 43 q 167 0 194 0 q 127 23 138 0 q 110 67 117 46 l 3 360 q 0 376 0 368 q 13 409 0 396 q 44 422 26 422 q 71 414 60 422 q 88 393 82 406 l 88 390 z "},"x":{"ha":424,"x_min":0,"x_max":335,"o":"m 199 247 l 324 69 q 331 36 335 54 q 313 7 328 18 q 278 -1 297 -4 q 249 18 260 3 l 143 169 l 29 6 l 25 1 q 15 -3 21 -3 q 4 1 8 -3 q 0 12 0 6 q 4 22 0 18 l 125 194 l 15 351 q 8 385 4 367 q 26 414 11 403 q 60 422 42 425 q 89 403 78 418 l 181 274 l 279 415 q 281 417 281 417 q 282 419 281 418 q 304 419 292 432 q 304 399 314 408 l 199 247 z "},"y":{"ha":456,"x_min":0,"x_max":369,"o":"m 88 392 l 208 64 q 209 60 208 61 q 210 56 210 58 l 339 411 q 340 413 340 411 q 354 422 344 422 q 369 407 369 422 q 369 403 369 404 q 368 401 368 403 l 176 -126 l 135 -237 q 121 -249 132 -249 q 106 -233 106 -249 q 106 -231 106 -232 q 107 -228 107 -229 l 193 10 q 167 0 181 0 q 125 28 136 0 l 124 28 l 3 360 q 0 376 0 371 q 13 409 0 396 q 44 422 26 422 q 88 394 76 422 l 88 392 z "},"z":{"ha":417,"x_min":-3,"x_max":336,"o":"m 275 422 q 306 415 290 425 q 324 386 321 404 q 317 353 328 368 l 89 29 l 321 29 q 336 14 336 29 q 321 -1 336 -1 l 47 -1 q 19 7 29 -1 q 1 36 4 18 q 8 69 -3 54 l 235 393 l 21 393 q 7 408 7 393 q 21 424 7 424 l 275 424 l 275 422 l 275 422 z "},"!":{"ha":189,"x_min":0,"x_max":103,"o":"m 7 676 l 7 679 q 19 710 7 697 q 51 724 32 724 q 83 710 71 724 q 96 679 96 697 l 96 676 l 81 183 q 72 163 81 171 q 51 154 64 154 q 31 163 39 154 q 22 183 22 171 l 7 676 m 51 0 q 15 15 31 0 q 0 51 0 31 q 15 88 0 74 q 51 103 31 103 q 88 88 74 103 q 103 51 103 74 q 88 15 103 31 q 51 0 74 0 z "},"&":{"ha":747,"x_min":-1,"x_max":656,"o":"m 383 664 q 379 665 381 664 q 376 665 378 665 q 325 685 353 678 q 267 693 297 693 q 171 653 210 693 q 132 556 132 613 q 171 458 132 497 q 267 418 210 418 q 282 403 282 418 q 267 388 282 388 q 197 373 229 388 q 140 334 164 358 q 101 276 115 310 q 88 206 88 243 q 101 135 88 168 q 140 76 115 101 q 197 37 164 51 q 267 22 229 22 q 355 37 314 22 q 427 76 396 51 q 476 135 458 101 q 494 206 494 168 q 493 219 494 214 q 463 226 478 222 q 433 239 449 231 q 366 266 400 258 q 301 269 332 274 q 244 251 269 265 q 206 213 219 238 q 194 206 201 206 q 183 217 183 206 q 185 225 183 222 q 240 285 207 261 q 311 320 272 310 q 390 326 350 331 q 468 299 431 321 q 513 281 490 286 l 517 281 l 517 279 q 588 276 556 268 q 635 310 619 285 q 644 315 636 315 q 656 304 656 315 q 654 299 656 300 q 602 244 635 264 q 533 218 569 224 l 533 206 q 513 122 533 161 q 456 54 492 83 q 371 8 419 25 q 267 -8 322 -8 q 163 8 211 -8 q 77 54 114 25 q 19 122 40 83 q -1 206 -1 161 q 47 327 -1 274 q 171 404 94 381 q 78 465 113 424 q 43 556 43 506 q 60 621 43 590 q 108 674 78 651 q 180 710 139 697 q 267 724 221 724 q 332 716 301 724 q 390 694 363 708 q 399 681 399 690 q 383 664 399 664 z "},"#":{"ha":918,"x_min":0,"x_max":814,"o":"m 440 721 q 456 706 451 717 q 456 683 460 694 l 382 503 l 547 503 l 629 706 q 644 721 633 717 q 667 721 656 725 q 683 706 678 717 q 682 683 688 694 l 608 503 l 785 503 q 806 494 797 503 q 814 474 814 485 q 806 453 814 463 q 785 444 797 444 l 586 444 l 518 278 l 694 278 q 715 269 707 278 q 724 249 724 260 q 715 228 724 238 q 694 219 707 219 l 494 219 l 411 17 q 396 1 407 6 q 374 1 385 -3 q 358 17 363 6 q 358 39 354 28 l 432 219 l 267 219 l 185 17 q 169 1 181 6 q 147 1 158 -3 q 131 17 136 6 q 131 39 126 28 l 204 219 l 29 219 q 8 228 17 219 q 0 249 0 238 q 8 269 0 260 q 29 278 17 278 l 228 278 l 296 444 l 119 444 q 99 453 107 444 q 90 474 90 463 q 99 494 90 485 q 119 503 107 503 l 319 503 l 401 706 q 418 721 407 717 q 440 721 429 725 m 524 444 l 358 444 l 290 278 l 456 278 l 524 444 z "},"$":{"ha":631,"x_min":0,"x_max":571,"o":"m 558 136 q 522 70 549 97 q 461 26 496 43 q 387 -1 426 8 q 311 -11 347 -10 l 311 -47 q 302 -67 311 -58 q 282 -75 293 -75 q 261 -67 269 -75 q 253 -47 253 -58 l 253 -11 q 209 -6 231 -8 q 168 3 188 -3 q 83 38 125 14 q 7 93 40 63 q 0 108 0 100 q 6 123 0 117 q 21 129 11 129 q 35 124 26 129 q 103 74 64 97 q 181 40 143 51 q 215 31 197 33 q 253 25 233 28 l 253 325 q 172 360 213 342 q 99 404 131 379 q 47 461 67 429 q 26 536 26 493 q 46 624 26 588 q 97 683 65 660 q 169 719 128 707 q 253 733 210 731 l 253 769 q 261 789 253 781 q 282 797 269 797 q 302 789 293 797 q 311 769 311 781 l 311 735 q 369 730 340 733 q 422 719 397 726 q 525 674 479 704 q 533 657 533 665 q 527 642 533 649 q 513 636 521 636 q 500 640 506 636 q 458 664 481 653 q 410 683 436 675 q 311 700 364 697 l 311 410 q 383 382 347 396 q 451 349 419 368 q 509 304 483 331 q 550 239 535 278 q 558 136 571 186 m 253 697 q 205 685 228 693 q 165 663 182 676 q 136 628 147 649 q 125 582 125 608 q 144 507 125 540 q 189 463 161 479 q 246 435 217 447 q 249 433 249 433 q 253 432 250 433 l 253 697 m 311 24 q 366 31 339 25 q 415 51 393 36 q 450 90 436 65 q 465 156 464 115 l 465 157 l 465 142 l 465 157 l 465 158 l 465 160 l 465 161 l 465 163 l 465 164 l 465 165 l 465 167 l 465 168 l 465 169 l 465 171 l 465 156 q 446 215 463 188 q 401 259 429 243 q 344 288 374 275 q 328 295 336 292 q 311 303 319 299 l 311 24 z "},"%":{"ha":678,"x_min":0,"x_max":571,"o":"m 536 718 q 555 689 551 707 q 547 656 558 671 l 96 15 q 67 -3 85 0 q 35 4 50 -7 q 16 33 19 15 q 24 67 13 51 l 475 707 q 503 726 486 722 q 536 718 521 729 m 451 238 q 536 203 501 238 q 561 165 551 188 q 571 118 571 143 q 561 72 571 94 q 536 35 551 50 q 498 8 519 18 q 451 -1 476 -1 q 367 35 403 -1 q 342 72 351 50 q 332 118 332 94 q 342 165 332 143 q 367 203 351 188 q 451 238 401 238 m 483 150 q 451 163 468 163 q 421 150 436 163 q 408 118 408 138 q 421 88 408 100 q 451 75 433 75 q 483 88 471 75 q 496 118 496 103 q 483 150 496 135 m 119 724 q 204 688 168 724 q 229 650 219 672 q 239 604 239 628 q 229 557 239 579 q 204 519 219 535 q 119 485 169 485 q 35 519 69 485 q 10 557 19 535 q 0 604 0 579 q 10 650 0 628 q 35 688 19 672 q 119 724 71 724 m 150 635 q 119 647 139 647 q 88 635 100 647 q 75 604 75 619 q 88 572 75 588 q 119 560 103 560 q 150 572 138 560 q 164 604 164 586 q 150 635 164 621 z "},"*":{"ha":426,"x_min":0,"x_max":315,"o":"m 157 750 q 178 741 169 750 q 186 721 186 732 l 186 663 l 228 703 q 248 713 236 713 q 268 703 260 713 q 276 683 276 694 q 268 663 276 671 l 226 621 l 286 621 q 306 613 297 621 q 315 592 315 604 q 306 572 315 581 q 286 564 297 564 l 226 564 l 268 522 q 276 501 276 514 q 268 481 276 489 q 248 472 260 472 q 228 481 236 472 l 186 522 l 186 464 q 178 443 186 451 q 157 435 169 435 q 137 443 146 435 q 128 464 128 451 l 128 522 l 88 481 q 66 472 78 472 q 46 481 54 472 q 38 501 38 489 q 46 522 38 514 l 88 564 l 29 564 q 8 572 17 564 q 0 592 0 581 q 8 613 0 604 q 29 621 17 621 l 88 621 l 46 663 q 38 683 38 671 q 46 703 38 694 q 66 713 54 713 q 88 703 78 713 l 128 663 l 128 721 q 137 741 128 732 q 157 750 146 750 z "},"+":{"ha":538,"x_min":0,"x_max":426,"o":"m 426 222 q 415 195 426 207 q 388 183 403 183 l 251 183 l 251 47 q 240 20 251 32 q 213 8 228 8 q 186 20 197 8 q 175 47 175 32 l 175 183 l 38 183 q 11 195 22 183 q 0 222 0 207 q 11 249 0 238 q 38 260 22 260 l 175 260 l 175 397 q 186 424 175 413 q 213 435 197 435 q 240 424 228 435 q 251 397 251 413 l 251 260 l 388 260 q 415 249 403 260 q 426 222 426 238 z "},"-":{"ha":531,"x_min":0,"x_max":426,"o":"m 426 222 q 415 195 426 207 q 388 183 403 183 l 38 183 q 11 195 22 183 q 0 222 0 207 q 11 249 0 238 q 38 260 22 260 l 388 260 q 415 249 403 260 q 426 222 426 238 z "},"<":{"ha":390,"x_min":-1,"x_max":286,"o":"m 272 211 q 286 178 286 197 q 272 146 286 160 q 240 132 258 132 q 207 146 221 132 l 21 332 q 2 373 -1 354 q 26 413 6 392 l 207 593 q 240 607 221 607 q 272 593 258 607 q 286 560 286 579 q 272 526 286 540 l 114 369 l 272 211 z "},">":{"ha":393,"x_min":-4,"x_max":283,"o":"m 10 526 q -4 560 -4 540 q 10 593 -4 579 q 42 607 24 607 q 75 593 61 607 l 256 413 q 280 373 276 392 q 261 332 283 354 l 75 146 q 42 132 61 132 q 10 146 24 132 q -4 178 -4 160 q 10 211 -4 197 l 168 369 l 10 526 z "},"€":{"ha":807,"x_min":-21,"x_max":713,"o":"m 444 735 q 583 708 518 735 q 697 636 647 682 q 702 632 700 633 q 707 628 704 631 q 711 622 710 625 q 713 615 713 619 q 696 600 713 600 q 683 607 688 600 q 577 677 638 651 q 447 704 517 703 l 444 704 q 353 685 396 704 q 274 634 310 667 q 213 556 239 601 q 175 458 188 511 l 378 458 q 399 449 390 458 q 407 429 407 440 q 399 408 407 417 q 378 400 390 400 l 165 400 q 164 381 164 390 q 164 361 164 372 q 164 342 164 351 q 165 324 164 333 l 357 324 q 378 315 369 324 q 386 294 386 306 q 378 274 386 282 q 357 265 369 265 l 175 265 q 213 167 188 213 q 274 90 239 122 q 353 38 310 57 q 444 19 396 19 l 446 19 q 578 46 517 19 q 686 119 639 72 q 697 124 690 124 q 713 108 713 124 q 707 97 713 101 q 590 17 657 46 q 444 -12 522 -12 q 321 8 379 -12 q 215 67 263 29 q 133 155 167 104 q 83 265 99 206 l 8 265 q -12 274 -4 265 q -21 294 -21 282 q -12 315 -21 306 q 8 324 -4 324 l 72 324 q 71 342 71 333 q 71 361 71 351 q 71 381 71 372 q 72 400 71 390 l 29 400 q 8 408 17 400 q 0 429 0 417 q 8 449 0 440 q 29 458 17 458 l 83 458 q 133 569 99 518 q 215 656 167 619 q 321 714 263 693 q 444 735 379 735 z "},"¡":{"ha":189,"x_min":0,"x_max":103,"o":"m 7 47 l 7 44 q 19 13 7 26 q 51 0 32 0 q 83 13 71 0 q 96 44 96 26 l 96 47 l 81 540 q 72 561 81 553 q 51 569 64 569 q 31 561 39 569 q 22 540 22 553 l 7 47 m 51 724 q 15 708 31 724 q 0 672 0 693 q 15 635 0 650 q 51 621 31 621 q 88 635 74 621 q 103 672 103 650 q 88 708 103 693 q 51 724 74 724 z "},"¢":{"ha":471,"x_min":0,"x_max":369,"o":"m 238 414 q 364 354 313 406 q 369 342 369 350 q 354 326 369 326 q 343 332 349 326 q 238 383 300 375 l 238 19 q 296 38 269 24 q 343 72 322 51 q 354 76 347 76 q 369 61 369 76 q 365 50 369 54 q 308 9 340 25 q 238 -11 275 -7 l 238 -47 q 229 -67 238 -58 q 208 -75 221 -75 q 189 -67 197 -75 q 181 -47 181 -58 l 181 -10 q 109 15 142 -4 q 52 63 76 35 q 14 126 28 90 q 0 201 0 161 q 14 277 0 242 q 52 341 28 313 q 109 388 76 369 q 181 413 142 407 l 181 454 q 189 475 181 467 q 208 483 197 483 q 229 475 221 483 q 238 454 238 467 l 238 414 m 181 378 q 117 313 142 361 q 92 201 92 265 q 117 90 92 139 q 181 25 142 42 l 181 378 z "},"£":{"ha":621,"x_min":0,"x_max":522,"o":"m 507 29 q 522 14 522 29 q 507 -1 522 -1 l 206 -1 l 179 -1 l 161 -1 q 128 12 142 -1 q 115 44 115 25 l 115 265 l 29 265 q 8 274 17 265 q 0 294 0 282 q 8 315 0 306 q 29 324 17 324 l 115 324 l 115 400 l 29 400 q 8 408 17 400 q 0 429 0 417 q 8 449 0 440 q 29 458 17 458 l 115 458 l 115 676 q 128 709 115 696 q 161 722 142 722 q 193 709 181 722 q 206 676 206 696 l 206 458 l 303 458 q 324 449 315 458 q 332 429 332 440 q 324 408 332 417 q 303 400 315 400 l 206 400 l 206 324 l 303 324 q 324 315 315 324 q 332 294 332 306 q 324 274 332 282 q 303 265 315 265 l 206 265 l 206 115 l 206 44 l 206 29 l 507 29 l 507 29 z "},"¤":{"ha":442,"x_min":0,"x_max":324,"o":"m 313 71 q 285 60 301 60 q 258 71 269 60 l 214 115 q 161 103 190 103 q 108 115 133 103 l 65 71 q 38 60 54 60 q 11 71 22 60 q 0 98 0 82 q 11 125 0 114 l 54 169 q 45 194 49 181 q 42 222 42 207 q 45 249 42 236 q 54 275 49 263 l 11 318 q 0 345 0 329 q 11 372 0 361 q 38 383 22 383 q 65 372 54 383 l 108 329 q 134 338 121 335 q 161 342 147 342 q 190 338 176 342 q 214 329 203 335 l 258 372 q 285 383 269 383 q 313 372 301 383 q 324 345 324 361 q 313 318 324 329 l 268 275 q 281 222 281 250 q 268 169 281 192 l 313 125 q 324 98 324 114 q 313 71 324 82 m 193 253 q 161 265 181 265 q 131 253 143 265 q 118 222 118 240 q 131 190 118 203 q 161 178 146 178 q 193 190 178 178 q 206 222 206 203 q 193 253 206 240 z "},"¥":{"ha":711,"x_min":0,"x_max":617,"o":"m 590 717 q 601 722 594 722 q 617 707 617 722 q 613 697 617 701 l 351 386 l 351 293 l 446 293 q 465 284 457 293 q 474 264 474 275 q 465 243 474 251 q 446 235 457 235 l 351 235 l 351 158 l 446 158 q 465 149 457 158 q 474 129 474 140 q 465 108 474 117 q 446 100 457 100 l 351 100 l 351 44 q 338 12 351 25 q 306 -1 325 -1 q 274 12 286 -1 q 261 44 261 25 l 261 100 l 171 100 q 151 108 160 100 q 142 129 142 117 q 151 149 142 140 q 171 158 160 158 l 261 158 l 261 235 l 171 235 q 151 243 160 235 q 142 264 142 251 q 151 284 142 275 q 171 293 160 293 l 261 293 l 261 350 l 10 649 q 0 676 0 663 q 13 709 0 696 q 44 722 26 722 q 79 707 67 722 q 81 704 79 707 l 331 407 l 590 717 l 590 717 z "},"=":{"ha":540,"x_min":0,"x_max":426,"o":"m 426 319 q 415 292 426 304 q 388 281 403 281 l 38 281 q 11 292 22 281 q 0 319 0 304 q 11 346 0 335 q 38 357 22 357 l 388 357 q 415 346 403 357 q 426 319 426 335 m 426 125 q 415 98 426 110 q 388 86 403 86 l 38 86 q 11 98 22 86 q 0 125 0 110 q 11 151 0 140 q 38 163 22 163 l 388 163 q 415 151 403 163 q 426 125 426 140 z "},":":{"ha":194,"x_min":0,"x_max":106,"o":"m 53 0 q 15 15 31 0 q 0 53 0 31 q 15 90 0 75 q 53 106 31 106 q 90 90 75 106 q 106 53 106 75 q 90 15 106 31 q 53 0 75 0 m 53 331 q 15 346 31 331 q 0 383 0 361 q 15 421 0 406 q 53 436 31 436 q 90 421 75 436 q 106 383 106 406 q 90 346 106 361 q 53 331 75 331 z "},"÷":{"ha":525,"x_min":0,"x_max":426,"o":"m 426 222 q 415 195 426 207 q 388 183 403 183 l 38 183 q 11 195 22 183 q 0 222 0 207 q 11 249 0 238 q 38 260 22 260 l 388 260 q 415 249 403 260 q 426 222 426 238 m 210 0 q 172 15 188 0 q 157 53 157 31 q 172 90 157 75 q 210 106 188 106 q 247 90 232 106 q 263 53 263 75 q 247 15 263 31 q 210 0 232 0 m 210 331 q 172 346 188 331 q 157 383 157 361 q 172 421 157 406 q 210 436 188 436 q 247 421 232 436 q 263 383 263 406 q 247 346 263 361 q 210 331 232 331 z "},"\"":{"ha":326,"x_min":4,"x_max":228,"o":"m 140 693 l 140 696 q 153 727 140 714 q 185 740 165 740 q 215 727 203 740 q 228 696 228 714 l 228 693 l 214 586 q 205 565 214 574 q 185 557 196 557 q 163 565 172 557 q 154 586 154 574 l 140 693 m 4 693 l 4 696 q 17 727 4 714 q 49 740 31 740 q 81 727 68 740 q 93 696 93 714 l 93 693 l 78 586 q 69 565 78 574 q 49 557 61 557 q 28 565 36 557 q 19 586 19 574 l 4 693 z "},"'":{"ha":189,"x_min":4,"x_max":93,"o":"m 4 693 l 4 696 q 17 727 4 714 q 49 740 31 740 q 81 727 68 740 q 93 696 93 714 l 93 693 l 78 586 q 69 565 78 574 q 49 557 61 557 q 28 565 36 557 q 19 586 19 574 l 4 693 z "},"(":{"ha":269,"x_min":0,"x_max":168,"o":"m 143 724 q 161 717 154 724 q 168 699 168 710 q 164 686 168 690 l 165 686 q 108 536 126 621 q 88 361 89 451 q 108 186 89 271 q 165 38 126 101 l 164 38 q 168 25 168 31 q 161 7 168 14 q 143 0 154 0 q 122 13 129 0 l 121 13 q 30 182 60 94 q 0 361 0 269 l 0 363 l 0 361 q 30 541 0 453 q 121 711 60 629 l 122 711 q 143 724 129 724 z "},")":{"ha":261,"x_min":0,"x_max":168,"o":"m 25 724 q 46 711 39 724 l 47 711 q 138 541 108 629 q 168 361 168 453 l 168 363 l 168 361 q 138 182 168 269 q 47 13 108 94 l 46 13 q 25 0 39 0 q 7 7 14 0 q 0 25 0 14 q 4 38 0 31 l 3 38 q 60 186 42 101 q 81 361 79 271 q 60 536 79 451 q 3 686 42 621 l 4 686 q 0 699 0 690 q 7 717 0 710 q 25 724 14 724 z "},";":{"ha":217,"x_min":0,"x_max":111,"o":"m 53 0 q 15 15 31 0 q 0 53 0 31 q 15 90 0 75 q 53 106 31 106 q 78 99 67 106 q 96 83 89 93 q 107 24 111 60 q 79 -32 103 -11 q 32 -51 60 -49 q 24 -50 26 -51 q 19 -36 14 -44 q 25 -33 22 -33 q 31 -31 28 -32 q 49 -20 42 -29 q 61 0 57 -11 l 53 0 m 53 331 q 15 346 31 331 q 0 383 0 361 q 15 421 0 406 q 53 436 31 436 q 90 421 75 436 q 106 383 106 406 q 90 346 106 361 q 53 331 75 331 z "},",":{"ha":217,"x_min":0,"x_max":111,"o":"m 53 0 q 15 15 31 0 q 0 53 0 31 q 15 90 0 75 q 53 106 31 106 q 78 99 67 106 q 96 83 89 93 q 107 24 111 60 q 79 -32 103 -11 q 32 -51 60 -49 q 24 -50 26 -51 q 19 -36 14 -44 q 25 -33 22 -33 q 31 -31 28 -32 q 49 -20 42 -29 q 61 0 57 -11 l 53 0 l 53 0 z "},".":{"ha":222,"x_min":0,"x_max":106,"o":"m 53 0 q 15 15 31 0 q 0 53 0 31 q 15 90 0 75 q 53 106 31 106 q 90 90 75 106 q 106 53 106 75 q 90 15 106 31 q 53 0 75 0 z "},"/":{"ha":535,"x_min":-4,"x_max":432,"o":"m 404 721 q 426 694 421 711 q 424 660 432 676 l 85 22 q 58 0 76 6 q 24 3 40 -6 q 1 30 7 13 q 6 64 -4 47 l 343 701 q 371 724 353 718 q 404 721 389 729 z "},"?":{"ha":543,"x_min":0,"x_max":443,"o":"m 28 606 q 15 597 25 597 q 0 611 0 597 q 3 619 0 614 q 3 622 3 621 q 4 624 4 622 q 97 702 36 678 q 224 722 158 726 q 346 685 289 718 q 428 589 403 651 q 442 516 442 554 q 429 440 443 478 q 400 389 421 415 q 354 337 379 363 q 302 290 329 311 q 253 254 275 268 l 253 197 q 240 167 253 179 q 208 154 228 154 q 177 167 190 154 q 164 197 164 179 l 164 285 q 209 314 182 296 q 263 355 236 332 q 313 405 290 378 q 344 464 336 432 q 353 514 351 489 q 347 564 354 539 q 290 658 332 626 q 197 694 247 690 q 101 674 147 697 q 29 606 54 651 l 28 606 m 207 103 q 244 88 229 103 q 258 51 258 74 q 244 15 258 31 q 207 0 229 0 q 171 15 186 0 q 156 51 156 31 q 171 88 156 74 q 207 103 186 103 z "},"@":{"ha":876,"x_min":0,"x_max":760,"o":"m 358 419 q 426 409 394 419 q 483 379 457 399 q 496 403 486 394 q 528 417 510 417 q 560 403 546 417 q 574 371 574 389 l 574 132 q 597 83 574 103 q 651 75 622 67 q 679 91 667 81 q 696 119 692 101 q 704 161 701 140 q 706 181 706 171 q 707 203 707 192 q 681 330 707 271 q 611 433 656 389 q 508 503 567 478 q 381 529 449 529 q 253 503 313 529 q 149 433 193 478 q 78 330 104 389 q 53 203 53 271 q 78 75 53 135 q 149 -29 104 15 q 253 -99 193 -74 q 381 -124 313 -124 q 481 -108 432 -124 q 572 -62 531 -92 q 592 -57 581 -56 q 610 -68 603 -58 q 615 -88 617 -78 q 603 -106 613 -99 q 553 -136 579 -122 q 497 -160 526 -150 q 440 -173 469 -168 q 381 -178 411 -178 q 233 -148 301 -178 q 111 -67 164 -118 q 30 55 60 -14 q 0 203 0 124 q 30 351 0 282 q 111 471 60 419 q 233 553 164 524 q 381 583 301 583 q 528 553 460 583 q 649 471 597 524 q 731 351 701 419 q 760 203 760 282 q 760 178 760 190 q 757 154 760 167 q 753 129 756 142 q 747 106 750 117 q 712 49 738 69 q 654 21 686 28 q 594 19 626 15 q 539 39 565 24 q 514 58 526 46 q 445 9 485 26 q 358 -8 406 -8 q 275 8 314 -8 q 207 54 236 25 q 161 122 178 83 q 144 206 144 161 q 161 289 144 250 q 207 357 178 328 q 275 403 236 386 q 358 419 314 419 m 482 342 q 361 389 432 386 l 358 389 q 311 374 333 389 q 272 335 289 360 q 246 276 256 310 q 236 206 236 243 q 246 135 236 168 q 272 76 256 101 q 311 37 289 51 q 358 22 333 22 l 364 22 q 428 36 399 24 q 482 69 458 49 l 482 342 z "},"\\":{"ha":535,"x_min":-4,"x_max":432,"o":"m 24 721 q 57 724 39 729 q 85 701 75 718 l 422 64 q 426 30 432 47 q 404 3 421 13 q 369 0 388 -6 q 343 22 351 6 l 4 660 q 1 694 -4 676 q 24 721 7 711 z "},"[":{"ha":288,"x_min":0,"x_max":178,"o":"m 0 678 q 13 710 0 697 q 44 724 26 724 l 46 724 l 163 724 q 178 708 178 724 q 163 693 178 693 l 90 693 l 90 678 l 90 44 l 90 31 l 163 31 q 178 15 178 31 q 163 0 178 0 l 44 0 q 13 13 26 0 q 0 44 0 26 l 0 678 l 0 678 z "},"]":{"ha":276,"x_min":0,"x_max":178,"o":"m 178 44 q 165 13 178 26 q 133 0 151 0 l 15 0 q 0 15 0 0 q 15 31 0 31 l 88 31 l 88 44 l 88 678 l 88 693 l 15 693 q 0 708 0 693 q 15 724 0 724 l 132 724 l 133 724 q 165 710 151 724 q 178 678 178 697 l 178 44 z "},"^":{"ha":582,"x_min":-3,"x_max":472,"o":"m 235 618 l 76 460 q 44 446 63 446 q 11 460 25 446 q -3 492 -3 474 q 11 525 -3 511 l 197 711 q 238 730 219 733 q 278 706 257 726 l 458 525 q 472 492 472 511 q 458 460 472 474 q 425 446 444 446 q 392 460 406 446 l 235 618 z "},"_":{"ha":669,"x_min":0,"x_max":561,"o":"m 0 -28 q 8 -8 0 -17 q 28 0 17 0 l 533 0 q 553 -8 544 0 q 561 -28 561 -17 q 553 -47 561 -39 q 533 -56 544 -56 l 28 -56 q 8 -47 17 -56 q 0 -28 0 -39 z "},"{":{"ha":411,"x_min":0,"x_max":313,"o":"m 135 678 q 148 710 135 697 q 181 724 161 724 l 297 724 q 313 708 313 724 q 297 693 313 693 l 225 693 l 225 678 l 225 556 q 188 437 225 489 q 93 361 151 385 q 188 285 151 338 q 225 167 225 233 l 225 44 l 225 31 l 297 31 q 313 15 313 31 q 297 0 313 0 l 181 0 q 148 13 161 0 q 135 44 135 26 l 135 167 l 136 167 q 127 235 136 203 q 103 291 118 267 q 67 330 88 315 q 22 346 46 344 q 17 347 19 347 q 11 347 14 346 q 1 361 1 350 q 11 375 0 372 q 22 376 14 376 q 67 393 46 378 q 103 432 88 408 q 127 488 118 456 q 136 556 136 519 l 135 556 l 135 678 l 135 678 z "},"}":{"ha":385,"x_min":-3,"x_max":310,"o":"m 175 556 l 174 556 q 183 488 174 519 q 207 432 192 456 q 243 393 222 408 q 288 376 264 378 q 299 375 296 376 q 309 361 310 372 q 299 347 308 350 q 293 347 296 346 q 288 346 290 347 q 243 330 264 344 q 207 291 222 315 q 183 235 192 267 q 174 167 174 203 l 175 167 l 175 44 q 162 13 175 26 q 129 0 149 0 l 13 0 q -3 15 -3 0 q 13 31 -3 31 l 85 31 l 85 44 l 85 167 q 122 285 85 233 q 217 361 158 338 q 122 437 158 385 q 85 556 85 489 l 85 678 l 85 693 l 13 693 q -3 708 -3 693 q 13 724 -3 724 l 129 724 q 162 710 149 724 q 175 678 175 697 l 175 556 z "},"|":{"ha":156,"x_min":0,"x_max":56,"o":"m 28 -111 q 8 -103 17 -111 q 0 -83 0 -94 l 0 808 q 8 828 0 819 q 28 836 17 836 q 47 828 39 836 q 56 808 56 819 l 56 -83 q 47 -103 56 -94 q 28 -111 39 -111 z "},"~":{"ha":699,"x_min":0,"x_max":596,"o":"m 1 175 q 64 245 26 217 q 145 285 101 274 q 235 291 189 296 q 324 261 282 286 q 397 231 360 240 q 466 224 433 222 q 525 240 499 226 q 565 276 551 253 q 579 285 569 285 q 596 268 596 285 q 594 260 596 263 q 533 190 569 218 q 452 151 496 163 q 362 144 408 139 q 274 174 315 150 q 200 203 238 194 q 130 210 163 213 q 71 195 97 208 q 31 158 44 182 q 17 150 25 150 q 5 155 10 150 q 0 167 0 160 q 3 175 0 169 l 1 175 l 1 175 z "},"…":{"ha":667,"x_min":0,"x_max":550,"o":"m 53 0 q 15 15 31 0 q 0 53 0 31 q 15 90 0 75 q 53 106 31 106 q 90 90 75 106 q 106 53 106 75 q 90 15 106 31 q 53 0 75 0 m 275 0 q 238 15 253 0 q 222 53 222 31 q 238 90 222 75 q 275 106 253 106 q 313 90 297 106 q 328 53 328 75 q 313 15 328 31 q 275 0 297 0 m 497 0 q 460 15 475 0 q 444 53 444 31 q 460 90 444 75 q 497 106 475 106 q 535 90 519 106 q 550 53 550 75 q 535 15 550 31 q 497 0 519 0 z "},"†":{"ha":240,"x_min":-93,"x_max":333,"o":"m 333 475 q 322 448 333 460 q 294 436 310 436 l 147 436 l 147 -83 q 139 -103 147 -94 q 119 -111 131 -111 q 100 -103 108 -111 q 92 -83 92 -94 l 92 436 l -56 436 q -82 448 -71 436 q -93 475 -93 460 q -82 501 -93 490 q -56 513 -71 513 l 92 513 l 92 808 q 100 828 92 819 q 119 836 108 836 q 139 828 131 836 q 147 808 147 819 l 147 513 l 294 513 q 322 501 310 513 q 333 475 333 490 z "},"‡":{"ha":240,"x_min":-93,"x_max":333,"o":"m 333 472 q 322 445 333 457 q 294 433 310 433 l 147 433 l 147 315 l 294 315 q 322 304 310 315 q 333 278 333 293 q 322 251 333 263 q 294 239 310 239 l 147 239 l 147 -83 q 139 -103 147 -94 q 119 -111 131 -111 q 100 -103 108 -111 q 92 -83 92 -94 l 92 239 l -56 239 q -82 251 -71 239 q -93 278 -93 263 q -82 304 -93 293 q -56 315 -71 315 l 92 315 l 92 433 l -56 433 q -82 445 -71 433 q -93 472 -93 457 q -82 499 -93 488 q -56 510 -71 510 l 92 510 l 92 808 q 100 828 92 819 q 119 836 108 836 q 139 828 131 836 q 147 808 147 819 l 147 510 l 294 510 q 322 499 310 510 q 333 472 333 488 z "},"–":{"ha":528,"x_min":0,"x_max":426,"o":"m 426 222 q 415 195 426 207 q 388 183 403 183 l 38 183 q 11 195 22 183 q 0 222 0 207 q 11 249 0 238 q 38 260 22 260 l 388 260 q 415 249 403 260 q 426 222 426 238 z "},"—":{"ha":642,"x_min":0,"x_max":538,"o":"m 538 222 q 526 195 538 207 q 499 183 514 183 l 38 183 q 11 195 22 183 q 0 222 0 207 q 11 249 0 238 q 38 260 22 260 l 499 260 q 526 249 514 260 q 538 222 538 238 z "},"‹":{"ha":297,"x_min":-18,"x_max":214,"o":"m 203 99 q 214 74 214 88 q 203 49 214 60 q 178 38 192 38 q 153 49 164 38 l 13 189 q 14 247 -18 218 l 153 388 q 178 399 164 399 q 203 388 192 399 q 214 363 214 376 q 203 338 214 349 l 83 218 l 203 99 z "},"›":{"ha":306,"x_min":-6,"x_max":226,"o":"m 6 338 q -6 363 -6 349 q 6 388 -6 376 q 31 399 17 399 q 56 388 44 399 l 194 247 q 196 189 226 218 l 56 49 q 31 38 44 38 q 6 49 17 38 q -6 74 -6 60 q 6 99 -6 88 l 125 218 l 6 338 z "},"«":{"ha":499,"x_min":-18,"x_max":394,"o":"m 83 218 l 203 99 q 214 74 214 88 q 203 49 214 60 q 178 38 192 38 q 153 49 164 38 l 13 189 q 14 247 -18 218 l 153 388 q 178 399 164 399 q 203 388 192 399 q 214 363 214 376 q 203 338 214 349 l 83 218 m 264 218 l 383 99 q 394 74 394 88 q 383 49 394 60 q 358 38 372 38 q 333 49 344 38 l 193 189 q 194 247 163 218 l 333 388 q 358 399 344 399 q 383 388 372 399 q 394 363 394 376 q 383 338 394 349 l 264 218 z "},"»":{"ha":499,"x_min":-6,"x_max":407,"o":"m 186 338 q 175 363 175 349 q 186 388 175 376 q 211 399 197 399 q 236 388 225 399 l 375 247 q 376 189 407 218 l 236 49 q 211 38 225 38 q 186 49 197 38 q 175 74 175 60 q 186 99 175 88 l 306 218 l 186 338 m 6 338 q -6 363 -6 349 q 6 388 -6 376 q 31 399 17 399 q 56 388 44 399 l 194 247 q 196 189 226 218 l 56 49 q 31 38 44 38 q 6 49 17 38 q -6 74 -6 60 q 6 99 -6 88 l 125 218 l 6 338 z "},"•":{"ha":303,"x_min":0,"x_max":194,"o":"m 0 282 q 28 351 0 322 q 97 379 57 379 q 166 351 138 379 q 194 282 194 322 q 166 213 194 242 q 97 185 138 185 q 28 213 57 185 q 0 282 0 242 z "},"¦":{"ha":153,"x_min":0,"x_max":56,"o":"m 28 -111 q 8 -103 17 -111 q 0 -83 0 -94 l 0 288 q 8 307 0 299 q 28 315 17 315 q 47 307 39 315 q 56 288 56 299 l 56 -83 q 47 -103 56 -94 q 28 -111 39 -111 m 28 410 q 8 418 17 410 q 0 438 0 426 l 0 808 q 8 828 0 819 q 28 836 17 836 q 47 828 39 836 q 56 808 56 819 l 56 438 q 47 418 56 426 q 28 410 39 410 z "},"‚":{"ha":181,"x_min":4,"x_max":93,"o":"m 4 54 l 4 57 q 17 88 4 75 q 49 101 31 101 q 81 88 68 101 q 93 57 93 75 l 93 54 l 78 -53 q 69 -74 78 -65 q 49 -82 61 -82 q 28 -74 36 -82 q 19 -53 19 -65 l 4 54 z "},"„":{"ha":326,"x_min":4,"x_max":228,"o":"m 140 54 l 140 57 q 153 88 140 75 q 185 101 165 101 q 215 88 203 101 q 228 57 228 75 l 228 54 l 214 -53 q 205 -74 214 -65 q 185 -82 196 -82 q 163 -74 172 -82 q 154 -53 154 -65 l 140 54 m 4 54 l 4 57 q 17 88 4 75 q 49 101 31 101 q 81 88 68 101 q 93 57 93 75 l 93 54 l 78 -53 q 69 -74 78 -65 q 49 -82 61 -82 q 28 -74 36 -82 q 19 -53 19 -65 l 4 54 z "},"“":{"ha":357,"x_min":-1,"x_max":251,"o":"m 199 689 q 236 674 221 689 q 251 636 251 658 q 236 599 251 614 q 199 583 221 583 q 156 607 172 583 q 144 665 140 629 q 172 721 149 700 q 219 740 192 738 q 228 739 225 740 q 232 725 236 733 q 226 722 229 722 q 221 719 224 721 q 202 710 210 719 q 190 689 194 700 l 199 689 m 57 689 q 94 674 79 689 q 110 636 110 658 q 94 599 110 614 q 57 583 79 583 q 14 607 31 583 q 3 665 -1 629 q 31 721 7 700 q 79 740 50 739 q 86 739 83 740 q 90 725 94 735 q 79 719 88 722 q 60 710 68 719 q 50 689 53 700 l 57 689 z "},"”":{"ha":336,"x_min":-7,"x_max":246,"o":"m 46 635 q 8 650 24 635 q -7 688 -7 665 q 8 725 -7 710 q 46 740 24 740 q 89 717 72 740 q 100 659 104 694 q 72 603 96 624 q 25 583 53 586 q 17 585 19 583 q 13 599 8 590 q 18 602 15 601 q 24 604 21 603 q 42 614 35 604 q 54 635 50 624 l 46 635 m 188 635 q 150 650 165 635 q 135 688 135 665 q 150 725 135 710 q 188 740 165 740 q 231 717 214 740 q 242 659 246 694 q 214 603 238 624 q 165 583 194 585 q 158 585 161 583 q 154 599 150 589 q 165 604 157 601 q 184 614 176 604 q 194 635 192 624 l 188 635 z "},"’":{"ha":213,"x_min":-7,"x_max":104,"o":"m 46 635 q 8 650 24 635 q -7 688 -7 665 q 8 725 -7 710 q 46 740 24 740 q 89 717 72 740 q 100 659 104 694 q 72 603 96 624 q 25 583 53 586 q 17 585 19 583 q 13 599 8 590 q 18 602 15 601 q 24 604 21 603 q 42 614 35 604 q 54 635 50 624 l 46 635 l 46 635 z "},"‘":{"ha":219,"x_min":-1,"x_max":110,"o":"m 57 689 q 94 674 79 689 q 110 636 110 658 q 94 599 110 614 q 57 583 79 583 q 14 607 31 583 q 3 665 -1 629 q 31 721 7 700 q 78 740 50 738 q 86 739 83 740 q 90 725 94 733 q 85 722 88 722 q 79 719 82 721 q 60 710 68 719 q 49 689 53 700 l 57 689 l 57 689 z "},"‰":{"ha":957,"x_min":0,"x_max":849,"o":"m 536 718 q 555 689 551 707 q 547 656 558 671 l 96 15 q 67 -3 85 0 q 35 4 50 -7 q 16 33 19 15 q 24 67 13 51 l 475 707 q 503 726 486 722 q 536 718 521 729 m 451 238 q 536 203 501 238 q 561 165 551 188 q 571 118 571 143 q 561 72 571 94 q 536 35 551 50 q 498 8 519 18 q 451 -1 476 -1 q 367 35 403 -1 q 342 72 351 50 q 332 118 332 94 q 342 165 332 143 q 367 203 351 188 q 451 238 401 238 m 483 150 q 451 163 468 163 q 421 150 436 163 q 408 118 408 138 q 421 88 408 100 q 451 75 433 75 q 483 88 471 75 q 496 118 496 103 q 483 150 496 135 m 119 724 q 204 688 168 724 q 229 650 219 672 q 239 604 239 628 q 229 557 239 579 q 204 519 219 535 q 119 485 169 485 q 35 519 69 485 q 10 557 19 535 q 0 604 0 579 q 10 650 0 628 q 35 688 19 672 q 119 724 71 724 m 150 635 q 119 647 139 647 q 88 635 100 647 q 75 604 75 619 q 88 572 75 588 q 119 560 103 560 q 150 572 138 560 q 164 604 164 586 q 150 635 164 621 m 729 238 q 814 203 779 238 q 839 165 829 188 q 849 118 849 143 q 839 72 849 94 q 814 35 829 50 q 776 8 797 18 q 729 -1 754 -1 q 644 35 681 -1 q 619 72 629 50 q 610 118 610 94 q 619 165 610 143 q 644 203 629 188 q 729 238 679 238 m 761 150 q 729 163 746 163 q 699 150 714 163 q 686 118 686 138 q 699 88 686 100 q 729 75 711 75 q 761 88 749 75 q 774 118 774 103 q 761 150 774 135 z "},"ﬁ":{"ha":468,"x_min":0,"x_max":385,"o":"m 0 513 q 17 594 0 556 q 62 662 33 633 q 128 707 90 690 q 211 724 167 724 q 278 713 246 724 q 333 682 310 701 q 371 636 357 663 q 385 581 385 610 l 385 578 q 367 536 385 554 q 325 518 350 518 q 282 536 300 518 q 264 578 264 554 q 274 611 264 597 q 300 632 285 625 q 264 676 288 660 q 211 693 240 693 q 164 679 186 693 q 126 640 142 665 q 100 583 110 615 q 90 513 90 550 l 90 367 l 182 367 q 197 351 197 367 q 182 338 197 338 l 90 338 l 90 44 q 77 13 90 26 q 44 0 64 0 q 13 13 26 0 q 0 44 0 26 l 0 513 m 279 376 q 292 409 279 396 q 325 422 306 422 q 357 409 344 422 q 369 376 369 396 l 369 44 q 357 13 369 26 q 325 0 344 0 q 292 13 306 0 q 279 44 279 26 l 279 376 z "},"°":{"ha":278,"x_min":0,"x_max":186,"o":"m 93 693 q 129 685 113 693 q 160 667 146 678 q 179 639 172 656 q 186 606 186 622 q 160 543 186 567 q 93 517 131 517 q 26 543 56 517 q 0 606 0 567 q 7 639 0 622 q 26 667 14 656 q 57 685 40 678 q 93 693 74 693 m 117 628 q 93 636 108 636 q 68 628 78 636 q 58 606 58 615 q 68 582 58 592 q 93 572 81 572 q 117 582 107 572 q 128 606 128 590 q 117 628 128 617 z "},"ﬀ":{"ha":517,"x_min":0,"x_max":444,"o":"m 218 513 q 235 594 218 556 q 280 660 251 632 q 347 706 308 689 q 429 724 385 724 q 444 708 444 724 q 429 693 444 693 q 382 679 404 693 q 344 640 360 665 q 318 583 328 615 q 308 513 308 550 l 308 367 l 400 367 q 415 351 415 367 q 400 338 415 338 l 308 338 l 308 44 q 296 13 308 26 q 264 0 283 0 q 231 13 244 0 q 218 44 218 26 l 218 338 l 90 338 l 90 44 q 77 13 90 26 q 44 0 64 0 q 13 13 26 0 q 0 44 0 26 l 0 446 q 17 528 0 489 q 62 595 33 567 q 128 640 90 624 q 211 657 167 657 q 251 653 231 657 q 240 639 244 646 q 229 625 235 632 q 220 626 225 626 q 211 626 215 626 q 164 613 186 626 q 126 574 142 599 q 100 516 110 549 q 90 446 90 483 l 90 367 l 218 367 l 218 513 l 218 513 z "},"ﬃ":{"ha":676,"x_min":0,"x_max":603,"o":"m 218 513 q 235 594 218 556 q 280 662 251 633 q 347 707 308 690 q 429 724 385 724 q 497 713 465 724 q 551 681 528 701 q 589 635 575 661 q 603 579 603 608 l 603 578 q 585 536 603 554 q 543 518 568 518 q 501 536 518 518 q 483 578 483 554 q 518 632 483 618 q 482 676 506 660 q 429 693 458 693 q 382 679 404 693 q 344 640 360 665 q 318 583 328 615 q 308 513 308 550 l 308 367 l 400 367 q 415 351 415 367 q 400 338 415 338 l 308 338 l 308 44 q 296 13 308 26 q 264 0 283 0 q 231 13 244 0 q 218 44 218 26 l 218 338 l 90 338 l 90 44 q 77 13 90 26 q 44 0 64 0 q 13 13 26 0 q 0 44 0 26 l 0 446 q 17 528 0 489 q 62 595 33 567 q 128 640 90 624 q 211 657 167 657 q 251 653 231 657 q 240 639 244 646 q 229 625 235 632 q 220 626 225 626 q 211 626 215 626 q 164 613 186 626 q 126 574 142 599 q 100 516 110 549 q 90 446 90 483 l 90 367 l 218 367 l 218 513 m 497 376 q 510 409 497 396 q 543 422 524 422 q 575 409 563 422 q 588 376 588 396 l 588 44 q 575 13 588 26 q 543 0 563 0 q 510 13 524 0 q 497 44 497 26 l 497 376 z "},"ﬆ":{"ha":717,"x_min":0,"x_max":643,"o":"m 418 504 q 400 592 418 556 q 356 628 382 628 q 268 592 304 628 q 232 504 232 556 q 247 447 232 472 q 285 404 261 421 l 285 403 q 289 400 288 401 q 293 397 290 399 q 301 385 301 394 q 288 369 301 372 q 285 371 285 369 l 285 369 l 276 374 q 235 391 257 385 q 190 399 213 397 q 119 378 143 401 q 103 359 108 368 q 97 331 97 350 q 111 290 97 306 q 148 263 125 274 q 199 243 171 251 q 254 224 228 235 q 313 168 293 206 q 328 94 333 131 q 276 25 321 50 q 181 -2 235 1 q 83 11 128 -6 q 43 33 63 19 q 6 61 24 46 q 0 72 0 67 q 14 86 0 86 q 24 82 19 86 q 56 58 39 69 q 90 39 72 46 q 124 28 106 32 q 162 23 143 24 q 199 26 181 22 q 231 43 217 31 q 247 63 242 53 q 253 92 251 72 q 238 132 253 117 q 201 158 224 147 q 150 178 178 169 q 96 199 122 188 q 39 240 61 214 q 17 304 17 267 q 33 363 17 339 q 74 400 49 386 q 130 419 99 414 q 192 424 161 425 q 210 423 201 424 q 228 421 219 422 q 210 460 217 439 q 203 504 203 481 q 215 564 203 536 q 247 613 226 592 q 296 645 268 633 q 356 657 324 657 q 414 645 386 657 q 463 613 442 633 q 495 564 483 592 q 507 504 507 536 l 507 411 l 600 411 q 614 397 614 411 q 600 382 614 382 l 507 382 l 507 210 q 517 140 507 172 q 542 83 526 107 q 581 44 558 58 q 628 31 603 31 q 643 15 643 31 q 628 0 643 0 q 545 17 583 0 q 479 62 507 33 q 435 128 451 90 q 418 210 418 167 l 418 504 z "},"æ":{"ha":867,"x_min":0,"x_max":765,"o":"m 214 425 q 280 415 249 425 q 338 385 311 404 q 350 408 342 399 q 383 422 364 422 q 414 408 401 422 q 426 385 424 399 q 485 415 454 404 q 551 425 517 425 q 635 408 596 425 q 703 363 674 392 q 749 294 732 333 q 765 211 765 256 q 765 195 765 203 q 763 181 764 188 l 461 181 q 446 196 446 181 q 461 211 446 211 l 674 211 q 664 282 674 249 q 638 340 654 315 q 599 380 621 365 q 551 394 576 394 q 504 380 526 394 q 465 340 482 365 q 439 282 449 315 q 429 211 429 249 q 439 140 429 174 q 465 82 449 107 q 504 42 482 57 q 551 28 526 28 l 554 28 q 623 42 590 28 q 681 81 656 57 q 692 86 686 86 q 707 71 707 86 q 701 58 707 63 q 634 14 672 31 q 551 -3 596 -3 q 426 36 482 -3 q 414 14 424 22 q 383 0 401 0 q 350 14 364 0 q 338 36 342 21 q 214 -3 283 -3 q 131 14 169 -3 q 63 60 92 31 q 17 128 33 89 q 0 211 0 167 q 17 294 0 256 q 63 363 33 333 q 131 408 92 392 q 214 425 169 425 m 338 346 q 283 381 314 368 q 217 394 251 393 l 214 394 q 167 380 189 394 q 128 340 144 365 q 101 282 111 315 q 92 211 92 249 q 101 140 92 174 q 128 82 111 107 q 167 42 144 57 q 214 28 189 28 l 219 28 q 284 42 254 29 q 338 75 314 54 l 338 346 z "},"œ":{"ha":863,"x_min":0,"x_max":763,"o":"m 214 425 q 308 403 265 425 q 381 344 351 381 q 454 403 411 381 q 549 425 497 425 q 632 408 593 425 q 700 363 671 392 q 746 294 729 333 q 763 211 763 256 q 762 195 763 203 q 760 181 761 188 l 738 181 l 669 181 l 458 181 q 443 196 443 181 q 458 211 443 211 l 671 211 q 661 282 671 249 q 635 340 651 315 q 596 380 618 365 q 549 394 574 394 q 466 347 500 394 q 426 231 432 300 q 428 211 428 224 q 426 192 428 197 q 466 74 432 121 q 549 28 500 28 l 551 28 q 620 42 588 28 q 678 81 653 57 q 689 86 683 86 q 704 71 704 86 q 699 58 704 64 q 631 14 669 31 q 549 -3 593 -3 q 454 19 497 -3 q 381 78 411 40 q 308 19 351 40 q 214 -3 265 -3 q 131 14 169 -3 q 63 60 92 31 q 17 128 33 89 q 0 211 0 167 q 17 294 0 256 q 63 363 33 333 q 131 408 92 392 q 214 425 169 425 m 335 231 q 322 295 332 265 q 296 347 313 325 q 258 382 279 369 q 214 394 238 394 q 167 380 189 394 q 128 340 144 365 q 101 282 111 315 q 92 211 92 249 q 101 140 92 174 q 128 82 111 107 q 167 42 144 57 q 214 28 189 28 q 258 40 238 28 q 296 75 279 53 q 322 127 313 97 q 335 192 332 157 l 335 211 l 335 231 z "},"Œ":{"ha":874,"x_min":0,"x_max":763,"o":"m 340 678 q 343 690 340 682 q 244 655 290 683 q 165 583 199 626 q 113 482 132 539 q 93 361 93 425 q 113 240 93 297 q 165 140 132 183 q 244 67 199 96 q 343 32 290 39 q 340 44 340 40 l 340 346 l 340 376 l 340 678 m 374 0 q 228 28 296 0 q 109 106 160 57 q 29 220 58 154 q 0 361 0 286 q 29 502 0 436 q 109 617 58 568 q 228 695 160 667 q 374 724 296 724 l 374 721 q 386 724 382 724 l 747 724 q 763 708 763 724 q 747 693 763 693 l 431 693 l 431 678 l 431 376 l 678 376 q 693 361 693 376 q 678 346 693 346 l 431 346 l 431 44 l 431 31 l 747 31 q 763 15 763 31 q 747 0 763 0 l 386 0 q 374 1 378 0 l 374 0 z "},"Æ":{"ha":889,"x_min":-3,"x_max":785,"o":"m 314 535 l 228 376 l 363 376 l 363 625 l 314 535 m 213 346 q 190 306 196 317 q 181 289 185 296 q 171 272 176 282 q 150 233 165 261 q 106 153 135 206 q 28 8 78 100 q 13 0 22 -1 q 0 17 -3 3 q 1 20 0 19 q 1 22 1 21 l 365 692 q 381 715 369 706 q 408 724 393 724 l 769 724 q 785 708 785 724 q 769 693 785 693 l 453 693 l 453 678 l 453 376 l 508 376 l 700 376 q 715 361 715 376 q 700 346 715 346 l 508 346 l 453 346 l 453 44 l 453 31 l 769 31 q 785 15 785 31 q 769 0 785 0 l 408 0 q 376 13 389 0 q 363 44 363 26 l 363 346 l 213 346 z "},"¿":{"ha":543,"x_min":4,"x_max":447,"o":"m 419 108 q 432 117 422 117 q 447 103 447 117 q 444 94 447 100 q 444 92 444 93 q 443 90 443 92 q 350 12 411 36 q 224 -8 289 -12 q 101 29 158 -4 q 19 125 44 63 q 5 198 6 160 q 18 274 4 236 q 47 325 26 299 q 93 377 68 351 q 145 424 118 403 q 194 460 172 446 l 194 517 q 207 547 194 535 q 239 560 219 560 q 270 547 257 560 q 283 517 283 535 l 283 429 q 238 400 265 418 q 184 359 211 382 q 134 309 157 336 q 103 250 111 282 q 94 200 96 225 q 100 150 93 175 q 158 56 115 88 q 250 20 200 24 q 347 40 300 17 q 418 108 393 63 l 419 108 m 240 611 q 203 626 218 611 q 189 663 189 640 q 203 699 189 683 q 240 714 218 714 q 276 699 261 714 q 292 663 292 683 q 276 626 292 640 q 240 611 261 611 z "},"×":{"ha":431,"x_min":0,"x_max":324,"o":"m 313 71 q 285 60 301 60 q 258 71 269 60 l 161 168 l 65 71 q 38 60 54 60 q 11 71 22 60 q 0 98 0 82 q 11 125 0 114 l 107 222 l 11 318 q 0 345 0 329 q 11 372 0 361 q 38 383 22 383 q 65 372 54 383 l 161 276 l 258 372 q 285 383 269 383 q 313 372 301 383 q 324 345 324 361 q 313 318 324 329 l 215 222 l 313 125 q 324 98 324 114 q 313 71 324 82 z "},"ﬂ":{"ha":481,"x_min":3,"x_max":372,"o":"m 3 513 q 19 594 3 556 q 65 662 36 633 q 131 707 93 690 q 214 724 169 724 q 256 719 236 724 q 293 707 275 714 q 328 724 307 724 q 360 710 347 724 q 372 678 372 697 l 372 44 q 360 13 372 26 q 328 0 346 0 q 296 13 310 0 q 282 44 282 29 l 282 663 q 214 693 254 693 q 167 679 189 693 q 128 640 144 665 q 103 583 113 615 q 93 513 93 550 l 93 367 l 185 367 q 200 351 200 367 q 185 338 200 338 l 93 338 l 93 44 q 81 13 93 26 q 49 0 68 0 q 16 13 29 0 q 3 44 3 26 l 3 513 l 3 513 z "},"ı":{"ha":192,"x_min":7,"x_max":97,"o":"m 7 376 q 20 409 7 396 q 53 422 33 422 q 85 409 72 422 q 97 376 97 396 l 97 44 q 85 13 97 26 q 53 0 72 0 q 20 13 33 0 q 7 44 7 26 l 7 376 l 7 376 z "},"`":{"ha":115,"x_min":-3,"x_max":111,"o":"m 18 643 q 45 647 31 650 q 67 631 60 643 l 104 567 q 108 540 111 554 q 90 518 104 525 q 64 515 78 511 q 42 531 50 518 l 4 594 q 1 622 -3 607 q 18 643 6 636 z "},"ˆ":{"ha":275,"x_min":-3,"x_max":278,"o":"m 3 542 q 1 562 -3 551 q 15 578 4 572 l 122 629 q 133 635 125 632 q 147 633 143 635 q 150 632 147 632 l 260 578 q 274 562 271 572 q 272 542 278 551 q 257 527 267 531 q 236 529 247 524 l 138 578 l 39 529 q 18 528 28 525 q 3 542 8 531 z "},"˜":{"ha":329,"x_min":0,"x_max":325,"o":"m 1 556 q 35 593 14 578 q 79 615 56 608 q 128 618 103 621 q 176 601 153 615 q 253 581 215 579 q 307 610 292 583 q 315 615 313 615 q 325 606 325 615 q 324 603 325 604 q 324 601 324 603 q 290 563 310 578 q 246 542 269 549 q 197 539 222 536 q 149 554 171 542 q 70 575 108 578 q 17 546 32 572 q 8 542 14 542 q 0 550 0 542 q 1 556 0 554 z "},"¨":{"ha":269,"x_min":0,"x_max":267,"o":"m 0 578 q 13 610 0 597 q 44 622 26 622 q 77 610 64 622 q 90 578 90 597 q 77 546 90 558 q 44 533 64 533 q 13 546 26 533 q 0 578 0 558 m 176 578 q 190 610 176 597 q 222 622 203 622 q 253 610 240 622 q 267 578 267 597 q 253 546 267 558 q 222 533 240 533 q 190 546 203 533 q 176 578 176 558 z "},"˚":{"ha":154,"x_min":0,"x_max":150,"o":"m 75 656 q 128 633 106 656 q 150 581 150 614 q 128 528 150 550 q 75 506 106 506 q 22 528 44 506 q 0 581 0 550 q 22 633 0 614 q 75 656 44 656 m 94 600 q 75 608 86 608 q 56 600 61 608 q 47 581 47 593 q 56 561 47 569 q 75 553 64 553 q 94 561 83 553 q 103 581 103 569 q 94 600 103 593 z "},"¸":{"ha":67,"x_min":0,"x_max":68,"o":"m 28 -100 q 21 -103 25 -101 q 13 -106 17 -106 q 0 -93 0 -106 q 1 -86 0 -87 q 8 -81 6 -82 l 11 -78 q 26 -40 26 -65 q 11 -1 26 -14 q 8 1 11 1 q 0 14 0 7 q 13 28 0 28 q 20 26 17 28 q 26 22 24 24 q 67 -38 67 -4 q 28 -100 68 -72 z "},"´":{"ha":111,"x_min":-3,"x_max":111,"o":"m 18 518 q 1 540 6 525 q 4 567 -3 554 l 42 631 q 64 647 50 643 q 90 643 78 650 q 108 622 104 636 q 104 594 111 607 l 67 531 q 45 515 60 518 q 18 518 31 511 z "},"·":{"ha":206,"x_min":0,"x_max":106,"o":"m 53 165 q 15 181 31 165 q 0 218 0 196 q 15 256 0 240 q 53 271 31 271 q 90 256 75 271 q 106 218 106 240 q 90 181 106 196 q 53 165 75 165 z "},"ß":{"ha":571,"x_min":0,"x_max":481,"o":"m 0 513 q 17 594 0 556 q 62 660 33 632 q 128 706 90 689 q 210 724 167 724 l 211 724 l 271 724 q 335 709 306 724 q 388 670 365 694 q 423 616 410 646 q 436 557 436 586 q 410 464 436 499 q 343 408 385 429 q 442 338 404 386 q 481 211 481 289 q 464 134 481 172 q 419 66 447 96 q 353 18 392 36 q 271 0 314 0 l 147 0 q 132 15 132 0 q 147 31 132 31 l 271 31 q 317 44 296 31 q 356 83 339 58 q 381 141 372 108 q 390 211 390 174 q 381 281 390 249 q 356 339 372 314 q 317 378 339 364 q 271 392 296 392 l 147 392 q 132 407 132 392 q 147 422 132 422 l 271 422 q 298 431 283 422 q 324 456 313 439 q 344 498 336 472 q 353 557 353 524 q 344 616 353 590 q 324 659 336 642 q 298 685 313 676 q 271 693 283 693 l 211 693 q 164 679 186 693 q 126 640 142 665 q 100 583 110 615 q 90 513 90 550 l 90 -78 q 77 -110 90 -97 q 44 -124 64 -124 q 13 -110 26 -124 q 0 -78 0 -97 l 0 513 l 0 513 z "},"ž":{"ha":417,"x_min":-3,"x_max":336,"o":"m 275 422 q 306 415 290 425 q 324 386 321 404 q 317 353 328 368 l 89 29 l 321 29 q 336 14 336 29 q 321 -1 336 -1 l 47 -1 q 19 7 29 -1 q 1 36 4 18 q 8 69 -3 54 l 235 393 l 21 393 q 7 408 7 393 q 21 424 7 424 l 275 424 l 275 422 l 275 422 m 44 615 q 60 629 50 626 q 81 628 69 632 l 179 579 l 278 628 q 299 630 289 633 q 314 615 308 626 q 316 595 319 606 q 301 579 313 585 l 192 525 q 189 524 189 525 q 175 522 185 522 q 164 528 167 525 l 57 579 q 42 595 46 585 q 44 615 39 606 z "},"ˇ":{"ha":278,"x_min":-3,"x_max":278,"o":"m 3 615 q 18 629 8 626 q 39 628 28 632 l 138 579 l 236 628 q 257 630 247 633 q 272 615 267 626 q 274 595 278 606 q 260 579 271 585 l 150 525 q 147 524 147 525 q 133 522 143 522 q 122 528 125 525 l 15 579 q 1 595 4 585 q 3 615 -3 606 z "},"à":{"ha":513,"x_min":0,"x_max":428,"o":"m 214 425 q 280 415 249 425 q 338 385 311 404 q 350 408 342 399 q 383 422 364 422 q 414 408 401 422 q 428 376 428 396 l 428 44 q 414 14 428 26 q 383 0 401 0 q 350 14 364 0 q 338 36 342 21 q 214 -3 283 -3 q 131 14 169 -3 q 63 60 92 31 q 17 128 33 89 q 0 211 0 167 q 17 294 0 256 q 63 363 33 333 q 131 408 92 392 q 214 425 169 425 m 338 346 q 283 381 314 368 q 217 394 251 393 l 214 394 q 167 380 189 394 q 128 340 144 365 q 101 282 111 315 q 92 211 92 249 q 101 140 92 174 q 128 82 111 107 q 167 42 144 57 q 214 28 189 28 l 219 28 q 284 42 254 29 q 338 75 314 54 l 338 346 m 178 643 q 205 647 190 650 q 226 631 219 643 l 264 567 q 267 540 271 554 q 250 518 264 525 q 224 515 238 511 q 201 531 210 518 l 164 594 q 161 622 157 607 q 178 643 165 636 z "},"è":{"ha":522,"x_min":0,"x_max":428,"o":"m 214 -3 q 131 14 169 -3 q 63 60 92 31 q 17 128 33 89 q 0 211 0 167 q 17 294 0 256 q 63 363 33 333 q 131 408 92 392 q 214 425 169 425 q 297 408 258 425 q 365 363 336 392 q 411 294 394 333 q 428 211 428 256 q 427 195 428 203 q 425 181 426 188 l 403 181 l 335 181 l 124 181 q 108 196 108 181 q 124 211 108 211 l 336 211 q 326 282 336 249 q 300 340 317 315 q 261 380 283 365 q 214 394 239 394 q 167 380 189 394 q 128 340 144 365 q 101 282 111 315 q 92 211 92 249 q 101 140 92 174 q 128 82 111 107 q 167 42 144 57 q 214 28 189 28 l 217 28 q 285 42 253 28 q 343 81 318 57 q 354 86 349 86 q 369 71 369 86 q 364 58 369 63 q 297 14 335 31 q 214 -3 258 -3 m 169 643 q 197 647 182 650 q 218 631 211 643 l 256 567 q 259 540 263 554 q 242 518 256 525 q 215 515 229 511 q 193 531 201 518 l 156 594 q 153 622 149 607 q 169 643 157 636 z "},"ì":{"ha":203,"x_min":-18,"x_max":110,"o":"m 19 376 q 33 409 19 396 q 65 422 46 422 q 97 409 85 422 q 110 376 110 396 l 110 44 q 97 13 110 26 q 65 0 85 0 q 33 13 46 0 q 19 44 19 26 l 19 376 m 3 643 q 30 647 15 650 q 51 631 44 643 l 89 567 q 92 540 96 554 q 75 518 89 525 q 49 515 63 511 q 26 531 35 518 l -11 594 q -14 622 -18 607 q 3 643 -10 636 z "},"ò":{"ha":519,"x_min":0,"x_max":428,"o":"m 214 425 q 297 408 258 425 q 365 363 336 392 q 411 294 394 333 q 428 211 428 256 q 411 128 428 167 q 365 60 394 89 q 297 14 336 31 q 214 -3 258 -3 q 131 14 169 -3 q 63 60 92 31 q 17 128 33 89 q 0 211 0 167 q 17 294 0 256 q 63 363 33 333 q 131 408 92 392 q 214 425 169 425 m 214 394 q 167 380 189 394 q 128 340 144 365 q 101 282 111 315 q 92 211 92 249 q 101 140 92 174 q 128 82 111 107 q 167 42 144 57 q 214 28 189 28 q 261 42 239 28 q 300 82 283 57 q 326 140 317 107 q 336 211 336 174 q 326 282 336 249 q 300 340 317 315 q 261 380 283 365 q 214 394 239 394 m 168 643 q 195 647 181 650 q 217 631 210 643 l 254 567 q 258 540 261 554 q 240 518 254 525 q 214 515 228 511 q 192 531 200 518 l 154 594 q 151 622 147 607 q 168 643 156 636 z "},"ù":{"ha":453,"x_min":-3,"x_max":358,"o":"m 178 -3 q 108 12 140 -3 q 50 51 75 26 q 11 108 25 75 q -3 178 -3 140 l -3 374 q 9 406 -3 393 q 40 419 21 418 q 74 407 60 421 q 88 374 88 393 l 88 178 q 94 120 88 147 q 114 72 101 93 q 142 40 126 51 q 178 28 158 28 q 268 58 229 28 l 268 368 l 268 375 q 307 419 271 413 l 308 419 l 310 419 l 311 419 l 313 419 l 314 419 l 315 419 l 317 419 q 345 406 333 418 q 358 378 357 394 l 358 376 l 358 375 l 358 374 l 358 43 q 348 14 358 25 q 323 0 338 3 q 294 3 308 -3 q 272 24 279 8 q 178 -3 228 -3 m 133 643 q 160 647 146 650 q 182 631 175 643 l 219 567 q 223 540 226 554 q 206 518 219 525 q 179 515 193 511 q 157 531 165 518 l 119 594 q 117 622 113 607 q 133 643 121 636 z "},"á":{"ha":513,"x_min":0,"x_max":428,"o":"m 214 425 q 280 415 249 425 q 338 385 311 404 q 350 408 342 399 q 383 422 364 422 q 414 408 401 422 q 428 376 428 396 l 428 44 q 414 14 428 26 q 383 0 401 0 q 350 14 364 0 q 338 36 342 21 q 214 -3 283 -3 q 131 14 169 -3 q 63 60 92 31 q 17 128 33 89 q 0 211 0 167 q 17 294 0 256 q 63 363 33 333 q 131 408 92 392 q 214 425 169 425 m 338 346 q 283 381 314 368 q 217 394 251 393 l 214 394 q 167 380 189 394 q 128 340 144 365 q 101 282 111 315 q 92 211 92 249 q 101 140 92 174 q 128 82 111 107 q 167 42 144 57 q 214 28 189 28 l 219 28 q 284 42 254 29 q 338 75 314 54 l 338 346 m 206 518 q 189 540 193 525 q 192 567 185 554 l 229 631 q 251 647 238 643 q 278 643 265 650 q 295 622 292 636 q 292 594 299 607 l 254 531 q 233 515 247 518 q 206 518 218 511 z "},"é":{"ha":522,"x_min":0,"x_max":428,"o":"m 214 -3 q 131 14 169 -3 q 63 60 92 31 q 17 128 33 89 q 0 211 0 167 q 17 294 0 256 q 63 363 33 333 q 131 408 92 392 q 214 425 169 425 q 297 408 258 425 q 365 363 336 392 q 411 294 394 333 q 428 211 428 256 q 427 195 428 203 q 425 181 426 188 l 403 181 l 335 181 l 124 181 q 108 196 108 181 q 124 211 108 211 l 336 211 q 326 282 336 249 q 300 340 317 315 q 261 380 283 365 q 214 394 239 394 q 167 380 189 394 q 128 340 144 365 q 101 282 111 315 q 92 211 92 249 q 101 140 92 174 q 128 82 111 107 q 167 42 144 57 q 214 28 189 28 l 217 28 q 285 42 253 28 q 343 81 318 57 q 354 86 349 86 q 369 71 369 86 q 364 58 369 63 q 297 14 335 31 q 214 -3 258 -3 m 211 518 q 194 540 199 525 q 197 567 190 554 l 235 631 q 257 647 243 643 q 283 643 271 650 q 301 622 297 636 q 297 594 304 607 l 260 531 q 238 515 253 518 q 211 518 224 511 z "},"í":{"ha":192,"x_min":7,"x_max":125,"o":"m 7 376 q 20 409 7 396 q 53 422 33 422 q 85 409 72 422 q 97 376 97 396 l 97 44 q 85 13 97 26 q 53 0 72 0 q 20 13 33 0 q 7 44 7 26 l 7 376 m 32 518 q 15 540 19 525 q 18 567 11 554 l 56 631 q 78 647 64 643 q 104 643 92 650 q 122 622 118 636 q 118 594 125 607 l 81 531 q 59 515 74 518 q 32 518 44 511 z "},"ó":{"ha":519,"x_min":0,"x_max":428,"o":"m 214 425 q 297 408 258 425 q 365 363 336 392 q 411 294 394 333 q 428 211 428 256 q 411 128 428 167 q 365 60 394 89 q 297 14 336 31 q 214 -3 258 -3 q 131 14 169 -3 q 63 60 92 31 q 17 128 33 89 q 0 211 0 167 q 17 294 0 256 q 63 363 33 333 q 131 408 92 392 q 214 425 169 425 m 214 394 q 167 380 189 394 q 128 340 144 365 q 101 282 111 315 q 92 211 92 249 q 101 140 92 174 q 128 82 111 107 q 167 42 144 57 q 214 28 189 28 q 261 42 239 28 q 300 82 283 57 q 326 140 317 107 q 336 211 336 174 q 326 282 336 249 q 300 340 317 315 q 261 380 283 365 q 214 394 239 394 m 210 518 q 193 540 197 525 q 196 567 189 554 l 233 631 q 256 647 242 643 q 282 643 269 650 q 299 622 296 636 q 296 594 303 607 l 258 531 q 237 515 251 518 q 210 518 222 511 z "},"ú":{"ha":453,"x_min":-3,"x_max":358,"o":"m 178 -3 q 108 12 140 -3 q 50 51 75 26 q 11 108 25 75 q -3 178 -3 140 l -3 374 q 9 406 -3 393 q 40 419 21 418 q 74 407 60 421 q 88 374 88 393 l 88 178 q 94 120 88 147 q 114 72 101 93 q 142 40 126 51 q 178 28 158 28 q 268 58 229 28 l 268 368 l 268 375 q 307 419 271 413 l 308 419 l 310 419 l 311 419 l 313 419 l 314 419 l 315 419 l 317 419 q 345 406 333 418 q 358 378 357 394 l 358 376 l 358 375 l 358 374 l 358 43 q 348 14 358 25 q 323 0 338 3 q 294 3 308 -3 q 272 24 279 8 q 178 -3 228 -3 m 172 518 q 156 540 160 525 q 158 567 151 554 l 196 631 q 218 647 204 643 q 244 643 232 650 q 262 622 258 636 q 258 594 265 607 l 221 531 q 199 515 214 518 q 172 518 185 511 z "},"â":{"ha":513,"x_min":0,"x_max":428,"o":"m 214 425 q 280 415 249 425 q 338 385 311 404 q 350 408 342 399 q 383 422 364 422 q 414 408 401 422 q 428 376 428 396 l 428 44 q 414 14 428 26 q 383 0 401 0 q 350 14 364 0 q 338 36 342 21 q 214 -3 283 -3 q 131 14 169 -3 q 63 60 92 31 q 17 128 33 89 q 0 211 0 167 q 17 294 0 256 q 63 363 33 333 q 131 408 92 392 q 214 425 169 425 m 338 346 q 283 381 314 368 q 217 394 251 393 l 214 394 q 167 380 189 394 q 128 340 144 365 q 101 282 111 315 q 92 211 92 249 q 101 140 92 174 q 128 82 111 107 q 167 42 144 57 q 214 28 189 28 l 219 28 q 284 42 254 29 q 338 75 314 54 l 338 346 m 89 542 q 87 562 83 551 q 101 578 90 572 l 208 629 q 219 635 211 632 q 233 633 229 635 q 236 632 233 632 l 346 578 q 360 562 357 572 q 358 542 364 551 q 343 527 353 531 q 322 529 333 524 l 224 578 l 125 529 q 104 528 114 525 q 89 542 94 531 z "},"ê":{"ha":522,"x_min":0,"x_max":428,"o":"m 214 -3 q 131 14 169 -3 q 63 60 92 31 q 17 128 33 89 q 0 211 0 167 q 17 294 0 256 q 63 363 33 333 q 131 408 92 392 q 214 425 169 425 q 297 408 258 425 q 365 363 336 392 q 411 294 394 333 q 428 211 428 256 q 427 195 428 203 q 425 181 426 188 l 403 181 l 335 181 l 124 181 q 108 196 108 181 q 124 211 108 211 l 336 211 q 326 282 336 249 q 300 340 317 315 q 261 380 283 365 q 214 394 239 394 q 167 380 189 394 q 128 340 144 365 q 101 282 111 315 q 92 211 92 249 q 101 140 92 174 q 128 82 111 107 q 167 42 144 57 q 214 28 189 28 l 217 28 q 285 42 253 28 q 343 81 318 57 q 354 86 349 86 q 369 71 369 86 q 364 58 369 63 q 297 14 335 31 q 214 -3 258 -3 m 81 542 q 78 562 75 551 q 93 578 82 572 l 200 629 q 211 635 203 632 q 225 633 221 635 q 228 632 225 632 l 338 578 q 352 562 349 572 q 350 542 356 551 q 335 527 344 531 q 314 529 325 524 l 215 578 l 117 529 q 96 528 106 525 q 81 542 86 531 z "},"î":{"ha":324,"x_min":-11,"x_max":269,"o":"m 82 376 q 95 409 82 396 q 128 422 108 422 q 160 409 147 422 q 172 376 172 396 l 172 44 q 160 13 172 26 q 128 0 147 0 q 95 13 108 0 q 82 44 82 26 l 82 376 m -6 542 q -8 562 -11 551 q 7 578 -4 572 l 114 629 q 125 635 117 632 q 139 633 135 635 q 142 632 139 632 l 251 578 q 266 562 263 572 q 264 542 269 551 q 249 527 258 531 q 228 529 239 524 l 129 578 l 31 529 q 10 528 19 525 q -6 542 0 531 z "},"ô":{"ha":519,"x_min":0,"x_max":428,"o":"m 214 425 q 297 408 258 425 q 365 363 336 392 q 411 294 394 333 q 428 211 428 256 q 411 128 428 167 q 365 60 394 89 q 297 14 336 31 q 214 -3 258 -3 q 131 14 169 -3 q 63 60 92 31 q 17 128 33 89 q 0 211 0 167 q 17 294 0 256 q 63 363 33 333 q 131 408 92 392 q 214 425 169 425 m 214 394 q 167 380 189 394 q 128 340 144 365 q 101 282 111 315 q 92 211 92 249 q 101 140 92 174 q 128 82 111 107 q 167 42 144 57 q 214 28 189 28 q 261 42 239 28 q 300 82 283 57 q 326 140 317 107 q 336 211 336 174 q 326 282 336 249 q 300 340 317 315 q 261 380 283 365 q 214 394 239 394 m 79 542 q 77 562 74 551 q 92 578 81 572 l 199 629 q 210 635 201 632 q 224 633 219 635 q 226 632 224 632 l 336 578 q 351 562 347 572 q 349 542 354 551 q 333 527 343 531 q 313 529 324 524 l 214 578 l 115 529 q 94 528 104 525 q 79 542 85 531 z "},"û":{"ha":453,"x_min":-3,"x_max":358,"o":"m 178 -3 q 108 12 140 -3 q 50 51 75 26 q 11 108 25 75 q -3 178 -3 140 l -3 374 q 9 406 -3 393 q 40 419 21 418 q 74 407 60 421 q 88 374 88 393 l 88 178 q 94 120 88 147 q 114 72 101 93 q 142 40 126 51 q 178 28 158 28 q 268 58 229 28 l 268 368 l 268 375 q 307 419 271 413 l 308 419 l 310 419 l 311 419 l 313 419 l 314 419 l 315 419 l 317 419 q 345 406 333 418 q 358 378 357 394 l 358 376 l 358 375 l 358 374 l 358 43 q 348 14 358 25 q 323 0 338 3 q 294 3 308 -3 q 272 24 279 8 q 178 -3 228 -3 m 46 542 q 44 562 40 551 q 58 578 47 572 l 165 629 q 176 635 168 632 q 190 633 186 635 q 193 632 190 632 l 303 578 q 317 562 314 572 q 315 542 321 551 q 300 527 310 531 q 279 529 290 524 l 181 578 l 82 529 q 61 528 71 525 q 46 542 51 531 z "},"ý":{"ha":456,"x_min":0,"x_max":369,"o":"m 88 392 l 208 64 q 209 60 208 61 q 210 56 210 58 l 339 411 q 340 413 340 411 q 354 422 344 422 q 369 407 369 422 q 369 403 369 404 q 368 401 368 403 l 176 -126 l 135 -237 q 121 -249 132 -249 q 106 -233 106 -249 q 106 -231 106 -232 q 107 -228 107 -229 l 193 10 q 167 0 181 0 q 125 28 136 0 l 124 28 l 3 360 q 0 376 0 371 q 13 409 0 396 q 44 422 26 422 q 88 394 76 422 l 88 392 m 181 518 q 164 540 168 525 q 167 567 160 554 l 204 631 q 226 647 213 643 q 253 643 240 650 q 270 622 267 636 q 267 594 274 607 l 229 531 q 208 515 222 518 q 181 518 193 511 z "},"ã":{"ha":513,"x_min":0,"x_max":428,"o":"m 214 425 q 280 415 249 425 q 338 385 311 404 q 350 408 342 399 q 383 422 364 422 q 414 408 401 422 q 428 376 428 396 l 428 44 q 414 14 428 26 q 383 0 401 0 q 350 14 364 0 q 338 36 342 21 q 214 -3 283 -3 q 131 14 169 -3 q 63 60 92 31 q 17 128 33 89 q 0 211 0 167 q 17 294 0 256 q 63 363 33 333 q 131 408 92 392 q 214 425 169 425 m 338 346 q 283 381 314 368 q 217 394 251 393 l 214 394 q 167 380 189 394 q 128 340 144 365 q 101 282 111 315 q 92 211 92 249 q 101 140 92 174 q 128 82 111 107 q 167 42 144 57 q 214 28 189 28 l 219 28 q 284 42 254 29 q 338 75 314 54 l 338 346 m 67 556 q 100 593 79 578 q 144 615 121 608 q 193 618 168 621 q 242 601 218 615 q 319 581 281 579 q 372 610 357 583 q 381 615 378 615 q 390 606 390 615 q 390 603 390 604 q 389 601 389 603 q 355 563 375 578 q 311 542 335 549 q 262 539 288 536 q 214 554 236 542 q 135 575 174 578 q 82 546 97 572 q 74 542 79 542 q 65 550 65 542 q 67 556 65 554 z "},"ñ":{"ha":456,"x_min":-3,"x_max":358,"o":"m 178 422 q 248 408 215 422 q 306 369 281 393 q 344 312 331 344 q 358 242 358 279 l 358 46 q 347 14 358 26 q 315 0 335 1 q 282 13 296 -1 q 268 46 268 26 l 268 242 q 261 299 268 272 q 242 347 254 326 q 213 380 229 368 q 178 392 196 392 q 88 361 126 392 l 88 51 l 88 44 q 49 0 85 7 l 47 0 l 46 0 l 44 0 l 43 0 l 42 0 l 40 0 l 39 0 q 10 13 22 1 q -3 42 -1 25 l -3 43 l -3 44 l -3 46 l -3 376 q 8 406 -3 394 q 33 419 18 417 q 62 417 47 422 q 83 396 76 411 q 178 422 128 422 m 21 556 q 54 593 33 578 q 99 615 75 608 q 147 618 122 621 q 196 601 172 615 q 273 581 235 579 q 326 610 311 583 q 335 615 332 615 q 344 606 344 615 q 344 603 344 604 q 343 601 343 603 q 309 563 329 578 q 265 542 289 549 q 216 539 242 536 q 168 554 190 542 q 90 575 128 578 q 36 546 51 572 q 28 542 33 542 q 19 550 19 542 q 21 556 19 554 z "},"õ":{"ha":519,"x_min":0,"x_max":428,"o":"m 214 425 q 297 408 258 425 q 365 363 336 392 q 411 294 394 333 q 428 211 428 256 q 411 128 428 167 q 365 60 394 89 q 297 14 336 31 q 214 -3 258 -3 q 131 14 169 -3 q 63 60 92 31 q 17 128 33 89 q 0 211 0 167 q 17 294 0 256 q 63 363 33 333 q 131 408 92 392 q 214 425 169 425 m 214 394 q 167 380 189 394 q 128 340 144 365 q 101 282 111 315 q 92 211 92 249 q 101 140 92 174 q 128 82 111 107 q 167 42 144 57 q 214 28 189 28 q 261 42 239 28 q 300 82 283 57 q 326 140 317 107 q 336 211 336 174 q 326 282 336 249 q 300 340 317 315 q 261 380 283 365 q 214 394 239 394 m 53 556 q 86 593 65 578 q 131 615 107 608 q 179 618 154 621 q 228 601 204 615 q 305 581 267 579 q 358 610 343 583 q 367 615 364 615 q 376 606 376 615 q 376 603 376 604 q 375 601 375 603 q 341 563 361 578 q 297 542 321 549 q 248 539 274 536 q 200 554 222 542 q 122 575 160 578 q 68 546 83 572 q 60 542 65 542 q 51 550 51 542 q 53 556 51 554 z "},"ä":{"ha":513,"x_min":0,"x_max":428,"o":"m 214 425 q 280 415 249 425 q 338 385 311 404 q 350 408 342 399 q 383 422 364 422 q 414 408 401 422 q 428 376 428 396 l 428 44 q 414 14 428 26 q 383 0 401 0 q 350 14 364 0 q 338 36 342 21 q 214 -3 283 -3 q 131 14 169 -3 q 63 60 92 31 q 17 128 33 89 q 0 211 0 167 q 17 294 0 256 q 63 363 33 333 q 131 408 92 392 q 214 425 169 425 m 338 346 q 283 381 314 368 q 217 394 251 393 l 214 394 q 167 380 189 394 q 128 340 144 365 q 101 282 111 315 q 92 211 92 249 q 101 140 92 174 q 128 82 111 107 q 167 42 144 57 q 214 28 189 28 l 219 28 q 284 42 254 29 q 338 75 314 54 l 338 346 m 90 578 q 103 610 90 597 q 135 622 117 622 q 167 610 154 622 q 181 578 181 597 q 167 546 181 558 q 135 533 154 533 q 103 546 117 533 q 90 578 90 558 m 267 578 q 280 610 267 597 q 313 622 293 622 q 344 610 331 622 q 357 578 357 597 q 344 546 357 558 q 313 533 331 533 q 280 546 293 533 q 267 578 267 558 z "},"ë":{"ha":522,"x_min":0,"x_max":428,"o":"m 214 -3 q 131 14 169 -3 q 63 60 92 31 q 17 128 33 89 q 0 211 0 167 q 17 294 0 256 q 63 363 33 333 q 131 408 92 392 q 214 425 169 425 q 297 408 258 425 q 365 363 336 392 q 411 294 394 333 q 428 211 428 256 q 427 195 428 203 q 425 181 426 188 l 403 181 l 335 181 l 124 181 q 108 196 108 181 q 124 211 108 211 l 336 211 q 326 282 336 249 q 300 340 317 315 q 261 380 283 365 q 214 394 239 394 q 167 380 189 394 q 128 340 144 365 q 101 282 111 315 q 92 211 92 249 q 101 140 92 174 q 128 82 111 107 q 167 42 144 57 q 214 28 189 28 l 217 28 q 285 42 253 28 q 343 81 318 57 q 354 86 349 86 q 369 71 369 86 q 364 58 369 63 q 297 14 335 31 q 214 -3 258 -3 m 82 578 q 95 610 82 597 q 126 622 108 622 q 159 610 146 622 q 172 578 172 597 q 159 546 172 558 q 126 533 146 533 q 95 546 108 533 q 82 578 82 558 m 258 578 q 272 610 258 597 q 304 622 285 622 q 335 610 322 622 q 349 578 349 597 q 335 546 349 558 q 304 533 322 533 q 272 546 285 533 q 258 578 258 558 z "},"ï":{"ha":314,"x_min":-12,"x_max":254,"o":"m 74 376 q 87 409 74 396 q 119 422 100 422 q 151 409 139 422 q 164 376 164 396 l 164 44 q 151 13 164 26 q 119 0 139 0 q 87 13 100 0 q 74 44 74 26 l 74 376 m -12 578 q 1 610 -12 597 q 32 622 14 622 q 65 610 51 622 q 78 578 78 597 q 65 546 78 558 q 32 533 51 533 q 1 546 14 533 q -12 578 -12 558 m 164 578 q 177 610 164 597 q 210 622 190 622 q 241 610 228 622 q 254 578 254 597 q 241 546 254 558 q 210 533 228 533 q 177 546 190 533 q 164 578 164 558 z "},"ö":{"ha":519,"x_min":0,"x_max":428,"o":"m 214 425 q 297 408 258 425 q 365 363 336 392 q 411 294 394 333 q 428 211 428 256 q 411 128 428 167 q 365 60 394 89 q 297 14 336 31 q 214 -3 258 -3 q 131 14 169 -3 q 63 60 92 31 q 17 128 33 89 q 0 211 0 167 q 17 294 0 256 q 63 363 33 333 q 131 408 92 392 q 214 425 169 425 m 214 394 q 167 380 189 394 q 128 340 144 365 q 101 282 111 315 q 92 211 92 249 q 101 140 92 174 q 128 82 111 107 q 167 42 144 57 q 214 28 189 28 q 261 42 239 28 q 300 82 283 57 q 326 140 317 107 q 336 211 336 174 q 326 282 336 249 q 300 340 317 315 q 261 380 283 365 q 214 394 239 394 m 81 578 q 94 610 81 597 q 125 622 107 622 q 158 610 144 622 q 171 578 171 597 q 158 546 171 558 q 125 533 144 533 q 94 546 107 533 q 81 578 81 558 m 257 578 q 270 610 257 597 q 303 622 283 622 q 334 610 321 622 q 347 578 347 597 q 334 546 347 558 q 303 533 321 533 q 270 546 283 533 q 257 578 257 558 z "},"ü":{"ha":453,"x_min":-3,"x_max":358,"o":"m 178 -3 q 108 12 140 -3 q 50 51 75 26 q 11 108 25 75 q -3 178 -3 140 l -3 374 q 9 406 -3 393 q 40 419 21 418 q 74 407 60 421 q 88 374 88 393 l 88 178 q 94 120 88 147 q 114 72 101 93 q 142 40 126 51 q 178 28 158 28 q 268 58 229 28 l 268 368 l 268 375 q 307 419 271 413 l 308 419 l 310 419 l 311 419 l 313 419 l 314 419 l 315 419 l 317 419 q 345 406 333 418 q 358 378 357 394 l 358 376 l 358 375 l 358 374 l 358 43 q 348 14 358 25 q 323 0 338 3 q 294 3 308 -3 q 272 24 279 8 q 178 -3 228 -3 m 49 578 q 62 610 49 597 q 93 622 75 622 q 126 610 113 622 q 139 578 139 597 q 126 546 139 558 q 93 533 113 533 q 62 546 75 533 q 49 578 49 558 m 225 578 q 238 610 225 597 q 271 622 251 622 q 302 610 289 622 q 315 578 315 597 q 302 546 315 558 q 271 533 289 533 q 238 546 251 533 q 225 578 225 558 z "},"ÿ":{"ha":456,"x_min":0,"x_max":369,"o":"m 88 392 l 208 64 q 209 60 208 61 q 210 56 210 58 l 339 411 q 340 413 340 411 q 354 422 344 422 q 369 407 369 422 q 369 403 369 404 q 368 401 368 403 l 176 -126 l 135 -237 q 121 -249 132 -249 q 106 -233 106 -249 q 106 -231 106 -232 q 107 -228 107 -229 l 193 10 q 167 0 181 0 q 125 28 136 0 l 124 28 l 3 360 q 0 376 0 371 q 13 409 0 396 q 44 422 26 422 q 88 394 76 422 l 88 392 m 53 578 q 66 610 53 597 q 97 622 79 622 q 130 610 117 622 q 143 578 143 597 q 130 546 143 558 q 97 533 117 533 q 66 546 79 533 q 53 578 53 558 m 229 578 q 242 610 229 597 q 275 622 256 622 q 306 610 293 622 q 319 578 319 597 q 306 546 319 558 q 275 533 293 533 q 242 546 256 533 q 229 578 229 558 z "},"å":{"ha":513,"x_min":0,"x_max":428,"o":"m 214 425 q 280 415 249 425 q 338 385 311 404 q 350 408 342 399 q 383 422 364 422 q 414 408 401 422 q 428 376 428 396 l 428 44 q 414 14 428 26 q 383 0 401 0 q 350 14 364 0 q 338 36 342 21 q 214 -3 283 -3 q 131 14 169 -3 q 63 60 92 31 q 17 128 33 89 q 0 211 0 167 q 17 294 0 256 q 63 363 33 333 q 131 408 92 392 q 214 425 169 425 m 338 346 q 283 381 314 368 q 217 394 251 393 l 214 394 q 167 380 189 394 q 128 340 144 365 q 101 282 111 315 q 92 211 92 249 q 101 140 92 174 q 128 82 111 107 q 167 42 144 57 q 214 28 189 28 l 219 28 q 284 42 254 29 q 338 75 314 54 l 338 346 m 218 656 q 271 633 249 656 q 293 581 293 614 q 271 528 293 550 q 218 506 249 506 q 165 528 188 506 q 143 581 143 550 q 165 633 143 614 q 218 656 188 656 m 238 600 q 218 608 229 608 q 199 600 204 608 q 190 581 190 593 q 199 561 190 569 q 218 553 207 553 q 238 561 226 553 q 246 581 246 569 q 238 600 246 593 z "},"ç":{"ha":471,"x_min":0,"x_max":369,"o":"m 214 425 q 297 408 258 425 q 364 364 335 392 q 369 351 369 358 q 354 336 369 336 q 343 342 347 336 q 217 394 290 392 l 214 394 q 167 380 189 394 q 128 340 144 365 q 101 282 111 315 q 92 211 92 249 q 101 140 92 174 q 128 82 111 107 q 167 42 144 57 q 214 28 189 28 l 219 28 q 288 43 256 29 q 343 81 319 57 q 354 86 349 86 q 369 71 369 86 q 365 60 369 64 q 297 14 336 31 q 214 -3 258 -3 q 131 14 169 -3 q 63 60 92 31 q 17 128 33 89 q 0 211 0 167 q 17 294 0 256 q 63 363 33 333 q 131 408 92 392 q 214 425 169 425 m 222 -100 q 215 -103 219 -101 q 207 -106 211 -106 q 194 -93 194 -106 q 196 -86 194 -87 q 203 -81 200 -82 l 206 -78 q 221 -40 221 -65 q 206 -1 221 -14 q 203 1 206 1 q 194 14 194 7 q 207 28 194 28 q 215 26 211 28 q 221 22 218 24 q 262 -38 261 -4 q 222 -100 263 -72 z "},"À":{"ha":646,"x_min":0,"x_max":564,"o":"m 332 692 l 561 61 q 563 60 561 61 q 564 44 564 56 q 551 13 564 26 q 519 0 539 0 q 492 8 504 0 q 476 31 481 17 l 399 244 l 114 244 l 29 10 q 15 0 26 0 q 0 15 0 0 q 1 19 0 18 l 1 21 l 246 689 q 261 714 249 704 q 289 724 274 724 q 315 715 304 724 q 332 693 326 706 l 332 692 m 257 633 l 125 274 l 388 274 l 257 633 m 231 921 q 258 924 243 928 q 279 908 272 921 l 317 844 q 320 817 324 832 q 303 796 317 803 q 276 792 290 789 q 254 808 263 796 l 217 872 q 214 899 210 885 q 231 921 218 914 z "},"È":{"ha":510,"x_min":0,"x_max":422,"o":"m 0 678 q 13 710 0 697 q 44 724 26 724 l 46 724 l 407 724 q 422 708 422 724 q 407 693 422 693 l 90 693 l 90 678 l 90 376 l 338 376 q 351 361 351 376 q 338 346 351 346 l 90 346 l 90 44 l 90 31 l 407 31 q 422 15 422 31 q 407 0 422 0 l 44 0 q 13 13 26 0 q 0 44 0 26 l 0 346 l 0 376 l 0 678 l 0 678 m 163 921 q 190 924 175 928 q 211 908 204 921 l 249 844 q 252 817 256 832 q 235 796 249 803 q 208 792 222 789 q 186 808 194 796 l 149 872 q 146 899 142 885 q 163 921 150 914 z "},"Ì":{"ha":189,"x_min":-28,"x_max":90,"o":"m 0 678 q 13 710 0 697 q 44 724 26 724 q 77 710 64 724 q 90 678 90 697 l 90 44 q 77 13 90 26 q 44 0 64 0 q 13 13 26 0 q 0 44 0 26 l 0 678 l 0 678 m -7 921 q 20 924 6 928 q 42 908 35 921 l 79 844 q 83 817 86 832 q 65 796 79 803 q 39 792 53 789 q 17 808 25 796 l -21 872 q -24 899 -28 885 q -7 921 -19 914 z "},"Ò":{"ha":828,"x_min":0,"x_max":747,"o":"m 374 735 q 518 706 450 735 q 638 626 586 676 q 718 507 689 575 q 747 361 747 439 q 718 216 747 283 q 638 97 689 149 q 518 17 586 46 q 374 -12 450 -12 q 228 17 296 -12 q 109 97 160 46 q 29 216 58 149 q 0 361 0 283 q 29 507 0 439 q 109 626 58 575 q 228 706 160 676 q 374 735 296 735 m 374 704 q 265 677 315 704 q 176 603 214 650 q 115 494 138 557 q 93 361 93 432 q 115 228 93 290 q 176 119 138 165 q 265 47 214 74 q 374 19 315 19 q 483 47 432 19 q 572 119 533 74 q 632 228 610 165 q 654 361 654 290 q 632 494 654 432 q 572 603 610 557 q 483 677 533 650 q 374 704 432 704 m 322 921 q 349 924 335 928 q 371 908 364 921 l 408 844 q 412 817 415 832 q 394 796 408 803 q 368 792 382 789 q 346 808 354 796 l 308 872 q 306 899 301 885 q 322 921 310 914 z "},"Ù":{"ha":669,"x_min":0,"x_max":572,"o":"m 572 275 q 550 165 572 217 q 489 74 528 113 q 398 12 450 35 q 286 -11 346 -11 q 174 12 226 -11 q 83 74 122 35 q 22 165 44 113 q 0 275 0 217 l 0 678 q 13 710 0 697 q 44 724 26 724 q 77 710 64 724 q 90 678 90 697 l 90 275 q 106 176 90 222 q 147 94 121 129 q 210 40 174 60 q 286 19 246 19 q 363 40 326 19 q 425 94 399 60 q 467 176 451 129 q 482 275 482 222 l 482 678 q 495 710 482 697 q 528 724 508 724 q 560 710 547 724 q 572 678 572 697 l 572 275 l 572 275 m 243 921 q 270 924 256 928 q 292 908 285 921 l 329 844 q 333 817 336 832 q 315 796 329 803 q 289 792 303 789 q 267 808 275 796 l 229 872 q 226 899 222 885 q 243 921 231 914 z "},"Á":{"ha":646,"x_min":0,"x_max":564,"o":"m 332 692 l 561 61 q 563 60 561 61 q 564 44 564 56 q 551 13 564 26 q 519 0 539 0 q 492 8 504 0 q 476 31 481 17 l 399 244 l 114 244 l 29 10 q 15 0 26 0 q 0 15 0 0 q 1 19 0 18 l 1 21 l 246 689 q 261 714 249 704 q 289 724 274 724 q 315 715 304 724 q 332 693 326 706 l 332 692 m 257 633 l 125 274 l 388 274 l 257 633 m 286 796 q 269 817 274 803 q 272 844 265 832 l 310 908 q 332 924 318 921 q 358 921 346 928 q 376 899 372 914 q 372 872 379 885 l 335 808 q 313 792 328 796 q 286 796 299 789 z "},"É":{"ha":510,"x_min":0,"x_max":422,"o":"m 0 678 q 13 710 0 697 q 44 724 26 724 l 46 724 l 407 724 q 422 708 422 724 q 407 693 422 693 l 90 693 l 90 678 l 90 376 l 338 376 q 351 361 351 376 q 338 346 351 346 l 90 346 l 90 44 l 90 31 l 407 31 q 422 15 422 31 q 407 0 422 0 l 44 0 q 13 13 26 0 q 0 44 0 26 l 0 346 l 0 376 l 0 678 l 0 678 m 218 796 q 201 817 206 803 q 204 844 197 832 l 242 908 q 264 924 250 921 q 290 921 278 928 q 308 899 304 914 q 304 872 311 885 l 267 808 q 245 792 260 796 q 218 796 231 789 z "},"Í":{"ha":189,"x_min":0,"x_max":117,"o":"m 0 678 q 13 710 0 697 q 44 724 26 724 q 77 710 64 724 q 90 678 90 697 l 90 44 q 77 13 90 26 q 44 0 64 0 q 13 13 26 0 q 0 44 0 26 l 0 678 l 0 678 m 24 796 q 7 817 11 803 q 10 844 3 832 l 47 908 q 69 924 56 921 q 96 921 83 928 q 113 899 110 914 q 110 872 117 885 l 72 808 q 51 792 65 796 q 24 796 36 789 z "},"Ó":{"ha":828,"x_min":0,"x_max":747,"o":"m 374 735 q 518 706 450 735 q 638 626 586 676 q 718 507 689 575 q 747 361 747 439 q 718 216 747 283 q 638 97 689 149 q 518 17 586 46 q 374 -12 450 -12 q 228 17 296 -12 q 109 97 160 46 q 29 216 58 149 q 0 361 0 283 q 29 507 0 439 q 109 626 58 575 q 228 706 160 676 q 374 735 296 735 m 374 704 q 265 677 315 704 q 176 603 214 650 q 115 494 138 557 q 93 361 93 432 q 115 228 93 290 q 176 119 138 165 q 265 47 214 74 q 374 19 315 19 q 483 47 432 19 q 572 119 533 74 q 632 228 610 165 q 654 361 654 290 q 632 494 654 432 q 572 603 610 557 q 483 677 533 650 q 374 704 432 704 m 364 796 q 347 817 351 803 q 350 844 343 832 l 388 908 q 410 924 396 921 q 436 921 424 928 q 453 899 450 914 q 450 872 457 885 l 413 808 q 391 792 406 796 q 364 796 376 789 z "},"Ú":{"ha":669,"x_min":0,"x_max":572,"o":"m 572 275 q 550 165 572 217 q 489 74 528 113 q 398 12 450 35 q 286 -11 346 -11 q 174 12 226 -11 q 83 74 122 35 q 22 165 44 113 q 0 275 0 217 l 0 678 q 13 710 0 697 q 44 724 26 724 q 77 710 64 724 q 90 678 90 697 l 90 275 q 106 176 90 222 q 147 94 121 129 q 210 40 174 60 q 286 19 246 19 q 363 40 326 19 q 425 94 399 60 q 467 176 451 129 q 482 275 482 222 l 482 678 q 495 710 482 697 q 528 724 508 724 q 560 710 547 724 q 572 678 572 697 l 572 275 l 572 275 m 285 796 q 268 817 272 803 q 271 844 264 832 l 308 908 q 331 924 317 921 q 357 921 344 928 q 374 899 371 914 q 371 872 378 885 l 333 808 q 312 792 326 796 q 285 796 297 789 z "},"Ý":{"ha":711,"x_min":0,"x_max":617,"o":"m 590 718 q 601 724 596 724 q 617 708 617 724 q 613 697 617 701 l 351 386 l 351 44 q 338 13 351 26 q 306 0 325 0 q 274 13 286 0 q 261 44 261 26 l 261 350 l 10 650 q 0 678 0 664 q 13 710 0 697 q 44 724 26 724 q 79 708 64 724 q 80 707 79 707 q 81 706 81 707 l 331 408 l 590 718 l 590 718 m 319 796 q 303 817 307 803 q 306 844 299 832 l 343 908 q 365 924 351 921 q 392 921 379 928 q 409 899 406 914 q 406 872 413 885 l 368 808 q 347 792 361 796 q 319 796 332 789 z "},"Â":{"ha":646,"x_min":0,"x_max":564,"o":"m 332 692 l 561 61 q 563 60 561 61 q 564 44 564 56 q 551 13 564 26 q 519 0 539 0 q 492 8 504 0 q 476 31 481 17 l 399 244 l 114 244 l 29 10 q 15 0 26 0 q 0 15 0 0 q 1 19 0 18 l 1 21 l 246 689 q 261 714 249 704 q 289 724 274 724 q 315 715 304 724 q 332 693 326 706 l 332 692 m 257 633 l 125 274 l 388 274 l 257 633 m 156 819 q 153 840 150 829 q 168 856 157 850 l 275 907 q 286 913 278 910 q 300 911 296 913 q 303 910 300 910 l 413 856 q 427 840 424 850 q 425 819 431 829 q 410 805 419 808 q 389 807 400 801 l 290 856 l 192 807 q 171 806 181 803 q 156 819 161 808 z "},"Ê":{"ha":510,"x_min":0,"x_max":422,"o":"m 0 678 q 13 710 0 697 q 44 724 26 724 l 46 724 l 407 724 q 422 708 422 724 q 407 693 422 693 l 90 693 l 90 678 l 90 376 l 338 376 q 351 361 351 376 q 338 346 351 346 l 90 346 l 90 44 l 90 31 l 407 31 q 422 15 422 31 q 407 0 422 0 l 44 0 q 13 13 26 0 q 0 44 0 26 l 0 346 l 0 376 l 0 678 l 0 678 m 74 819 q 72 840 68 829 q 86 856 75 850 l 193 907 q 204 913 196 910 q 218 911 214 913 q 221 910 218 910 l 331 856 q 345 840 342 850 q 343 819 349 829 q 328 805 338 808 q 307 807 318 801 l 208 856 l 110 807 q 89 806 99 803 q 74 819 79 808 z "},"Î":{"ha":189,"x_min":-92,"x_max":189,"o":"m 0 678 q 13 710 0 697 q 44 724 26 724 q 77 710 64 724 q 90 678 90 697 l 90 44 q 77 13 90 26 q 44 0 64 0 q 13 13 26 0 q 0 44 0 26 l 0 678 l 0 678 m -86 819 q -88 840 -92 829 q -74 856 -85 850 l 33 907 q 44 913 36 910 q 58 911 54 913 q 61 910 58 910 l 171 856 q 185 840 182 850 q 183 819 189 829 q 168 805 178 808 q 147 807 158 801 l 49 856 l -50 807 q -71 806 -61 803 q -86 819 -81 808 z "},"Ô":{"ha":828,"x_min":0,"x_max":747,"o":"m 374 735 q 518 706 450 735 q 638 626 586 676 q 718 507 689 575 q 747 361 747 439 q 718 216 747 283 q 638 97 689 149 q 518 17 586 46 q 374 -12 450 -12 q 228 17 296 -12 q 109 97 160 46 q 29 216 58 149 q 0 361 0 283 q 29 507 0 439 q 109 626 58 575 q 228 706 160 676 q 374 735 296 735 m 374 704 q 265 677 315 704 q 176 603 214 650 q 115 494 138 557 q 93 361 93 432 q 115 228 93 290 q 176 119 138 165 q 265 47 214 74 q 374 19 315 19 q 483 47 432 19 q 572 119 533 74 q 632 228 610 165 q 654 361 654 290 q 632 494 654 432 q 572 603 610 557 q 483 677 533 650 q 374 704 432 704 m 239 819 q 237 840 233 829 q 251 856 240 850 l 358 907 q 369 913 361 910 q 383 911 379 913 q 386 910 383 910 l 496 856 q 510 840 507 850 q 508 819 514 829 q 493 805 503 808 q 472 807 483 801 l 374 856 l 275 807 q 254 806 264 803 q 239 819 244 808 z "},"Û":{"ha":669,"x_min":0,"x_max":572,"o":"m 572 275 q 550 165 572 217 q 489 74 528 113 q 398 12 450 35 q 286 -11 346 -11 q 174 12 226 -11 q 83 74 122 35 q 22 165 44 113 q 0 275 0 217 l 0 678 q 13 710 0 697 q 44 724 26 724 q 77 710 64 724 q 90 678 90 697 l 90 275 q 106 176 90 222 q 147 94 121 129 q 210 40 174 60 q 286 19 246 19 q 363 40 326 19 q 425 94 399 60 q 467 176 451 129 q 482 275 482 222 l 482 678 q 495 710 482 697 q 528 724 508 724 q 560 710 547 724 q 572 678 572 697 l 572 275 l 572 275 m 157 819 q 155 840 151 829 q 169 856 158 850 l 276 907 q 288 913 279 910 q 301 911 297 913 q 304 910 301 910 l 414 856 q 428 840 425 850 q 426 819 432 829 q 411 805 421 808 q 390 807 401 801 l 292 856 l 193 807 q 172 806 182 803 q 157 819 163 808 z "},"Ã":{"ha":646,"x_min":0,"x_max":564,"o":"m 332 692 l 561 61 q 563 60 561 61 q 564 44 564 56 q 551 13 564 26 q 519 0 539 0 q 492 8 504 0 q 476 31 481 17 l 399 244 l 114 244 l 29 10 q 15 0 26 0 q 0 15 0 0 q 1 19 0 18 l 1 21 l 246 689 q 261 714 249 704 q 289 724 274 724 q 315 715 304 724 q 332 693 326 706 l 332 692 m 257 633 l 125 274 l 388 274 l 257 633 m 124 833 q 157 871 136 856 q 201 892 178 886 q 250 896 225 899 q 299 879 275 893 q 376 859 338 857 q 429 888 414 861 q 438 893 435 893 q 447 883 447 893 q 447 881 447 882 q 446 879 446 881 q 412 841 432 856 q 368 820 392 826 q 319 817 344 814 q 271 832 293 819 q 192 853 231 856 q 139 824 154 850 q 131 819 136 819 q 122 828 122 819 q 124 833 122 832 z "},"Ë":{"ha":510,"x_min":0,"x_max":422,"o":"m 0 678 q 13 710 0 697 q 44 724 26 724 l 46 724 l 407 724 q 422 708 422 724 q 407 693 422 693 l 90 693 l 90 678 l 90 376 l 338 376 q 351 361 351 376 q 338 346 351 346 l 90 346 l 90 44 l 90 31 l 407 31 q 422 15 422 31 q 407 0 422 0 l 44 0 q 13 13 26 0 q 0 44 0 26 l 0 346 l 0 376 l 0 678 l 0 678 m 78 856 q 91 888 78 875 q 122 900 104 900 q 155 888 142 900 q 168 856 168 875 q 155 824 168 836 q 122 811 142 811 q 91 824 104 811 q 78 856 78 836 m 254 856 q 267 888 254 875 q 300 900 281 900 q 331 888 318 900 q 344 856 344 875 q 331 824 344 836 q 300 811 318 811 q 267 824 281 811 q 254 856 254 836 z "},"Õ":{"ha":828,"x_min":0,"x_max":747,"o":"m 374 735 q 518 706 450 735 q 638 626 586 676 q 718 507 689 575 q 747 361 747 439 q 718 216 747 283 q 638 97 689 149 q 518 17 586 46 q 374 -12 450 -12 q 228 17 296 -12 q 109 97 160 46 q 29 216 58 149 q 0 361 0 283 q 29 507 0 439 q 109 626 58 575 q 228 706 160 676 q 374 735 296 735 m 374 704 q 265 677 315 704 q 176 603 214 650 q 115 494 138 557 q 93 361 93 432 q 115 228 93 290 q 176 119 138 165 q 265 47 214 74 q 374 19 315 19 q 483 47 432 19 q 572 119 533 74 q 632 228 610 165 q 654 361 654 290 q 632 494 654 432 q 572 603 610 557 q 483 677 533 650 q 374 704 432 704 m 211 833 q 244 871 224 856 q 289 892 265 886 q 338 896 313 899 q 386 879 363 893 q 463 859 425 857 q 517 888 501 861 q 525 893 522 893 q 535 883 535 893 q 534 881 535 882 q 533 879 533 881 q 499 841 519 856 q 456 820 479 826 q 406 817 432 814 q 358 832 381 819 q 280 853 318 856 q 226 824 242 850 q 218 819 224 819 q 210 828 210 819 q 211 833 210 832 z "},"Ñ":{"ha":631,"x_min":0,"x_max":533,"o":"m 31 621 l 31 15 q 15 0 31 0 q 0 15 0 0 l 0 676 q 22 717 0 704 q 55 722 38 726 q 83 703 72 718 l 504 103 l 504 708 q 518 724 504 724 q 533 708 533 724 l 533 707 l 533 46 l 533 43 q 511 6 533 19 q 478 1 496 -3 q 450 21 460 6 l 31 621 m 111 833 q 144 871 124 856 q 189 892 165 886 q 238 896 213 899 q 286 879 263 893 q 363 859 325 857 q 417 888 401 861 q 425 893 422 893 q 435 883 435 893 q 434 881 435 882 q 433 879 433 881 q 399 841 419 856 q 356 820 379 826 q 306 817 332 814 q 258 832 281 819 q 180 853 218 856 q 126 824 142 850 q 118 819 124 819 q 110 828 110 819 q 111 833 110 832 z "},"Ä":{"ha":646,"x_min":0,"x_max":564,"o":"m 332 692 l 561 61 q 563 60 561 61 q 564 44 564 56 q 551 13 564 26 q 519 0 539 0 q 492 8 504 0 q 476 31 481 17 l 399 244 l 114 244 l 29 10 q 15 0 26 0 q 0 15 0 0 q 1 19 0 18 l 1 21 l 246 689 q 261 714 249 704 q 289 724 274 724 q 315 715 304 724 q 332 693 326 706 l 332 692 m 257 633 l 125 274 l 388 274 l 257 633 m 153 856 q 166 888 153 875 q 197 900 179 900 q 230 888 217 900 q 243 856 243 875 q 230 824 243 836 q 197 811 217 811 q 166 824 179 811 q 153 856 153 836 m 329 856 q 342 888 329 875 q 375 900 356 900 q 406 888 393 900 q 419 856 419 875 q 406 824 419 836 q 375 811 393 811 q 342 824 356 811 q 329 856 329 836 z "},"Ï":{"ha":189,"x_min":-85,"x_max":182,"o":"m 0 678 q 13 710 0 697 q 44 724 26 724 q 77 710 64 724 q 90 678 90 697 l 90 44 q 77 13 90 26 q 44 0 64 0 q 13 13 26 0 q 0 44 0 26 l 0 678 l 0 678 m -85 856 q -72 888 -85 875 q -40 900 -58 900 q -8 888 -21 900 q 6 856 6 875 q -8 824 6 836 q -40 811 -21 811 q -72 824 -58 811 q -85 856 -85 836 m 92 856 q 105 888 92 875 q 138 900 118 900 q 169 888 156 900 q 182 856 182 875 q 169 824 182 836 q 138 811 156 811 q 105 824 118 811 q 92 856 92 836 z "},"Ö":{"ha":828,"x_min":0,"x_max":747,"o":"m 374 735 q 518 706 450 735 q 638 626 586 676 q 718 507 689 575 q 747 361 747 439 q 718 216 747 283 q 638 97 689 149 q 518 17 586 46 q 374 -12 450 -12 q 228 17 296 -12 q 109 97 160 46 q 29 216 58 149 q 0 361 0 283 q 29 507 0 439 q 109 626 58 575 q 228 706 160 676 q 374 735 296 735 m 374 704 q 265 677 315 704 q 176 603 214 650 q 115 494 138 557 q 93 361 93 432 q 115 228 93 290 q 176 119 138 165 q 265 47 214 74 q 374 19 315 19 q 483 47 432 19 q 572 119 533 74 q 632 228 610 165 q 654 361 654 290 q 632 494 654 432 q 572 603 610 557 q 483 677 533 650 q 374 704 432 704 m 239 856 q 252 888 239 875 q 283 900 265 900 q 316 888 303 900 q 329 856 329 875 q 316 824 329 836 q 283 811 303 811 q 252 824 265 811 q 239 856 239 836 m 415 856 q 428 888 415 875 q 461 900 442 900 q 492 888 479 900 q 506 856 506 875 q 492 824 506 836 q 461 811 479 811 q 428 824 442 811 q 415 856 415 836 z "},"Ü":{"ha":669,"x_min":0,"x_max":572,"o":"m 572 275 q 550 165 572 217 q 489 74 528 113 q 398 12 450 35 q 286 -11 346 -11 q 174 12 226 -11 q 83 74 122 35 q 22 165 44 113 q 0 275 0 217 l 0 678 q 13 710 0 697 q 44 724 26 724 q 77 710 64 724 q 90 678 90 697 l 90 275 q 106 176 90 222 q 147 94 121 129 q 210 40 174 60 q 286 19 246 19 q 363 40 326 19 q 425 94 399 60 q 467 176 451 129 q 482 275 482 222 l 482 678 q 495 710 482 697 q 528 724 508 724 q 560 710 547 724 q 572 678 572 697 l 572 275 l 572 275 m 157 856 q 170 888 157 875 q 201 900 183 900 q 234 888 221 900 q 247 856 247 875 q 234 824 247 836 q 201 811 221 811 q 170 824 183 811 q 157 856 157 836 m 333 856 q 347 888 333 875 q 379 900 360 900 q 410 888 397 900 q 424 856 424 875 q 410 824 424 836 q 379 811 397 811 q 347 824 360 811 q 333 856 333 836 z "},"Å":{"ha":646,"x_min":0,"x_max":564,"o":"m 332 692 l 561 61 q 563 60 561 61 q 564 44 564 56 q 551 13 564 26 q 519 0 539 0 q 492 8 504 0 q 476 31 481 17 l 399 244 l 114 244 l 29 10 q 15 0 26 0 q 0 15 0 0 q 1 19 0 18 l 1 21 l 246 689 q 261 714 249 704 q 289 724 274 724 q 315 715 304 724 q 332 693 326 706 l 332 692 m 257 633 l 125 274 l 388 274 l 257 633 m 286 933 q 339 911 317 933 q 361 858 361 892 q 339 806 361 828 q 286 783 317 783 q 233 806 256 783 q 211 858 211 828 q 233 911 211 892 q 286 933 256 933 m 306 878 q 286 886 297 886 q 267 878 272 886 q 258 858 258 871 q 267 839 258 847 q 286 831 275 831 q 306 839 294 831 q 314 858 314 847 q 306 878 314 871 z "},"Ç":{"ha":735,"x_min":0,"x_max":642,"o":"m 374 735 q 513 708 449 735 q 628 636 578 682 q 632 632 631 633 q 636 628 633 631 l 638 628 q 642 615 642 621 q 626 600 642 600 q 613 607 617 600 q 507 677 567 651 q 376 704 447 703 l 374 704 q 265 677 315 704 q 176 603 214 650 q 115 494 138 557 q 93 361 93 432 q 115 228 93 290 q 176 119 138 165 q 265 47 214 74 q 374 19 315 19 l 375 19 q 508 46 446 19 q 615 119 569 72 q 626 124 619 124 q 642 108 642 124 q 638 97 642 101 q 519 17 586 46 q 374 -12 451 -12 q 228 17 296 -12 q 109 97 160 46 q 29 216 58 149 q 0 361 0 283 q 29 507 0 439 q 109 626 58 575 q 228 706 160 676 q 374 735 296 735 m 367 -108 q 360 -112 364 -110 q 351 -114 356 -114 q 339 -101 339 -114 q 340 -94 339 -96 q 347 -89 344 -90 l 350 -86 q 365 -48 365 -74 q 350 -10 365 -22 q 347 -7 350 -7 q 339 6 339 -1 q 351 19 339 19 q 359 17 356 19 q 365 14 363 15 q 406 -47 406 -12 q 367 -108 407 -81 z "},"Ø":{"ha":828,"x_min":0,"x_max":747,"o":"m 374 735 q 518 706 450 735 q 638 626 586 676 q 718 507 689 575 q 747 361 747 439 q 718 216 747 283 q 638 97 689 149 q 518 17 586 46 q 374 -12 450 -12 q 228 17 296 -12 q 109 97 160 46 q 29 216 58 149 q 0 361 0 283 q 29 507 0 439 q 109 626 58 575 q 228 706 160 676 q 374 735 296 735 m 374 704 q 265 677 315 704 q 176 603 214 650 q 115 494 138 557 q 93 361 93 432 q 115 228 93 290 q 176 119 138 165 q 265 47 214 74 q 374 19 315 19 q 483 47 432 19 q 572 119 533 74 q 632 228 610 165 q 654 361 654 290 q 632 494 654 432 q 572 603 610 557 q 483 677 533 650 q 374 704 432 704 m 563 721 q 585 694 579 711 q 582 660 590 676 l 243 22 q 217 0 235 6 q 182 3 199 -6 q 160 30 165 13 q 164 64 154 47 l 501 701 q 529 724 511 718 q 563 721 547 729 z "},"ø":{"ha":519,"x_min":0,"x_max":428,"o":"m 214 425 q 274 417 244 425 q 300 433 285 429 q 331 429 315 436 q 352 405 346 421 q 353 374 358 389 q 408 301 388 343 q 428 211 428 260 q 411 128 428 167 q 365 60 394 89 q 297 14 336 31 q 214 -3 258 -3 q 150 7 178 -3 q 126 -2 139 0 q 101 3 113 -4 q 82 22 89 10 q 78 46 75 33 q 21 119 42 76 q 0 211 0 161 q 17 294 0 256 q 63 363 33 333 q 131 408 92 392 q 214 425 169 425 m 214 28 q 261 42 239 28 q 300 82 283 57 q 326 140 317 107 q 336 211 336 174 q 317 308 336 263 l 171 39 q 214 28 193 28 m 214 394 q 167 380 189 394 q 128 340 144 365 q 101 282 111 315 q 92 211 92 249 q 110 114 92 158 l 256 383 q 214 394 233 394 z "},"Ÿ":{"ha":711,"x_min":0,"x_max":617,"o":"m 590 718 q 601 724 596 724 q 617 708 617 724 q 613 697 617 701 l 351 386 l 351 44 q 338 13 351 26 q 306 0 325 0 q 274 13 286 0 q 261 44 261 26 l 261 350 l 10 650 q 0 678 0 664 q 13 710 0 697 q 44 724 26 724 q 79 708 64 724 q 80 707 79 707 q 81 706 81 707 l 331 408 l 590 718 l 590 718 m 185 856 q 198 888 185 875 q 229 900 211 900 q 262 888 249 900 q 275 856 275 875 q 262 824 275 836 q 229 811 249 811 q 198 824 211 811 q 185 856 185 836 m 361 856 q 374 888 361 875 q 407 900 388 900 q 438 888 425 900 q 451 856 451 875 q 438 824 451 836 q 407 811 425 811 q 374 824 388 811 q 361 856 361 836 z "},"Š":{"ha":631,"x_min":-12,"x_max":550,"o":"m 546 136 q 505 66 535 94 q 436 20 475 38 q 354 -5 397 3 q 275 -12 311 -12 q 156 3 213 -12 q 110 19 139 7 q 55 46 82 31 q 8 78 28 61 q -12 108 -12 94 q -7 123 -12 117 q 8 129 -1 129 q 22 124 14 129 q 140 49 75 76 q 276 22 206 22 q 338 27 307 22 q 394 46 368 32 q 435 86 419 60 q 453 156 451 113 l 453 157 l 453 142 l 453 157 l 453 160 l 453 163 l 453 165 l 453 168 l 453 171 l 453 156 q 439 205 450 185 q 411 240 428 225 q 374 267 394 256 q 332 288 353 278 q 233 327 288 307 q 129 375 178 347 q 47 442 81 403 q 14 536 14 481 q 38 631 14 593 q 99 692 61 669 q 185 725 138 715 q 282 735 233 735 q 347 730 307 735 q 426 715 388 725 q 493 691 465 706 q 521 657 521 676 q 515 642 521 649 q 500 636 508 636 q 488 640 493 636 q 394 683 447 667 q 281 700 342 700 q 223 694 253 700 q 169 673 193 688 q 128 636 144 658 q 113 582 113 614 q 132 507 113 540 q 185 460 149 479 q 269 424 222 442 q 365 388 315 407 q 456 340 415 368 q 524 272 497 313 q 550 174 550 232 q 546 136 550 153 m 143 893 q 158 907 149 904 q 179 906 168 910 l 278 857 l 376 906 q 397 908 388 911 q 413 893 407 904 q 415 873 418 883 q 400 857 411 863 l 290 803 q 288 801 288 803 q 274 800 283 800 q 263 806 265 803 l 156 857 q 141 873 144 863 q 143 893 138 883 z "},"š":{"ha":414,"x_min":0,"x_max":333,"o":"m 279 372 q 237 390 260 383 q 190 399 214 397 q 119 378 143 401 q 103 359 108 368 q 97 331 97 350 q 111 290 97 306 q 148 263 125 274 q 199 243 171 251 q 254 224 228 235 q 313 168 293 206 q 328 94 333 131 q 276 25 321 50 q 181 -2 235 1 q 83 11 128 -6 q 43 33 63 19 q 6 61 24 46 q 0 72 0 67 q 14 86 0 86 q 24 82 19 86 q 56 58 39 69 q 90 39 72 46 q 124 28 106 32 q 162 23 143 24 q 199 26 181 22 q 231 43 217 31 q 247 63 242 53 q 253 92 251 72 q 238 132 253 117 q 201 158 224 147 q 150 178 178 169 q 96 199 122 188 q 39 240 61 214 q 17 304 17 267 q 33 363 17 339 q 74 400 49 386 q 130 419 99 414 q 192 424 161 425 q 293 397 244 424 q 301 385 301 394 q 288 369 301 372 q 279 372 285 369 m 28 615 q 43 629 33 626 q 64 628 53 632 l 163 579 l 261 628 q 282 630 272 633 q 297 615 292 626 q 299 595 303 606 q 285 579 296 585 l 175 525 q 172 524 172 525 q 158 522 168 522 q 147 528 150 525 l 40 579 q 26 595 29 585 q 28 615 22 606 z "},"Ž":{"ha":576,"x_min":0,"x_max":489,"o":"m 19 693 q 4 708 4 693 q 19 724 4 724 l 410 724 q 442 710 429 724 q 456 678 456 697 q 451 657 456 667 l 89 31 l 474 31 q 489 15 489 31 q 474 0 489 0 l 44 0 q 13 13 26 0 q 0 44 0 26 q 6 67 0 60 l 367 693 l 19 693 m 103 893 q 118 907 108 904 q 139 906 128 910 l 238 857 l 336 906 q 357 908 347 911 q 372 893 367 904 q 374 873 378 883 q 360 857 371 863 l 250 803 q 247 801 247 803 q 233 800 243 800 q 222 806 225 803 l 115 857 q 101 873 104 863 q 103 893 97 883 z "},"Ł":{"ha":586,"x_min":-6,"x_max":489,"o":"m 474 31 q 489 15 489 31 q 474 0 489 0 l 172 0 l 144 0 l 128 0 l 126 0 q 94 13 107 0 q 82 44 82 26 l 82 329 l 33 308 q 1 321 11 299 q 14 353 -6 343 l 82 381 l 82 678 q 94 710 82 697 q 126 724 107 724 q 159 710 146 724 q 172 678 172 697 l 172 419 l 218 440 l 225 442 q 244 442 235 446 q 256 429 253 439 q 256 412 260 421 q 243 399 253 403 l 172 368 l 172 117 l 172 44 l 172 31 l 474 31 l 474 31 z "},"ð":{"ha":656,"x_min":0,"x_max":543,"o":"m 533 311 q 542 231 542 271 q 528 153 543 192 q 431 38 500 82 q 271 -7 361 -7 q 165 12 214 -7 q 79 63 115 31 q 22 137 43 94 q 0 228 0 179 q 22 319 0 276 q 79 393 43 361 q 165 444 115 425 q 271 463 214 463 l 271 461 q 397 432 340 461 q 360 497 381 465 q 319 556 340 528 l 247 525 l 246 524 q 228 524 238 521 q 215 536 219 528 q 228 568 206 558 l 289 594 q 236 656 263 628 q 222 686 222 667 q 234 715 222 703 q 263 726 246 726 q 290 715 279 726 q 323 679 303 701 q 367 626 343 657 l 432 656 l 438 658 q 469 646 460 665 q 457 614 479 624 l 396 588 q 478 460 439 531 q 533 311 517 390 m 419 383 q 351 419 389 407 q 271 432 314 432 q 201 416 233 432 q 143 372 168 400 q 104 307 118 344 q 90 228 90 269 q 104 149 90 186 q 143 83 118 111 q 201 40 168 56 q 271 24 233 24 q 392 76 342 24 q 437 146 422 108 q 452 224 451 183 q 444 305 453 264 q 419 383 435 346 z "},"Ð":{"ha":728,"x_min":-6,"x_max":632,"o":"m 82 678 q 95 710 82 697 q 128 724 108 724 l 269 724 l 269 722 q 410 694 344 722 q 526 617 476 665 q 603 502 575 568 q 632 361 632 436 q 603 220 632 286 q 526 106 575 154 q 410 28 476 57 q 269 0 344 0 l 128 0 q 95 13 108 0 q 82 44 82 26 l 82 329 l 33 308 q 1 321 11 299 q 14 353 -6 343 l 82 381 l 82 678 m 218 440 l 225 442 q 244 442 235 446 q 256 429 253 439 q 256 412 260 421 q 243 399 253 403 l 172 368 l 172 31 l 269 31 q 375 56 325 31 q 462 127 425 82 q 520 232 499 172 q 542 361 542 292 q 520 490 542 429 q 462 596 499 551 q 375 667 425 640 q 269 693 325 693 l 172 693 l 172 419 l 218 440 z "},"Þ":{"ha":601,"x_min":0,"x_max":500,"o":"m 260 611 q 353 592 310 611 q 430 541 397 574 q 481 465 463 508 q 500 371 500 421 q 481 277 500 321 q 430 200 463 233 q 353 148 397 167 q 260 129 310 129 l 90 129 l 90 89 l 90 44 q 77 13 90 26 q 44 0 64 0 q 13 13 26 0 q 0 44 0 26 l 0 514 l 0 567 l 0 682 q 13 714 0 701 q 44 726 26 726 q 77 714 64 726 q 90 682 90 701 l 90 611 l 260 611 m 260 160 q 317 176 290 160 q 365 222 344 193 q 398 288 386 250 q 410 371 410 326 q 398 453 410 414 q 365 520 386 492 q 317 565 344 549 q 260 582 290 582 l 90 582 l 90 567 l 90 160 l 260 160 z "},"þ":{"ha":540,"x_min":0,"x_max":428,"o":"m 214 425 q 297 408 258 425 q 365 363 336 392 q 411 294 394 333 q 428 211 428 256 q 411 128 428 167 q 365 60 394 89 q 297 14 336 31 q 214 -3 258 -3 q 90 36 144 -3 l 90 -126 q 77 -158 90 -146 q 44 -171 64 -171 q 13 -158 26 -171 q 0 -126 0 -146 l 0 42 l 0 43 l 0 211 l 0 678 q 13 710 0 697 q 44 724 26 724 q 77 710 64 724 q 90 678 90 697 l 90 386 q 214 425 144 425 m 90 75 q 144 42 114 54 q 208 28 174 29 l 214 28 q 261 42 239 28 q 300 82 283 57 q 326 140 317 107 q 336 211 336 174 q 326 282 336 249 q 300 340 317 315 q 261 380 283 365 q 214 394 239 394 l 211 394 q 144 381 175 393 q 90 347 114 368 l 90 75 z "},"ł":{"ha":350,"x_min":-6,"x_max":260,"o":"m 74 678 q 86 710 74 697 q 118 724 99 724 q 151 710 138 724 q 164 678 164 697 l 164 417 l 218 440 l 225 442 q 244 442 235 446 q 256 429 253 439 q 256 412 260 421 q 243 399 253 403 l 164 364 l 164 44 q 150 13 164 26 q 119 0 138 0 q 86 13 100 0 q 74 44 74 26 l 74 326 l 33 308 q 1 321 11 299 q 14 353 -6 343 l 74 378 l 74 678 l 74 678 z "}}}
